<?xml version="1.0" encoding="UTF-8" standalone="no"?>
<svg
   width="376.0509"
   height="377.52307"
   version="1.1"
   id="svg1"
   sodipodi:docname="favicon.svg"
   inkscape:version="1.4 (86a8ad7, 2024-10-11)"
   xmlns:inkscape="http://www.inkscape.org/namespaces/inkscape"
   xmlns:sodipodi="http://sodipodi.sourceforge.net/DTD/sodipodi-0.dtd"
   xmlns="http://www.w3.org/2000/svg"
   xmlns:svg="http://www.w3.org/2000/svg">
  <defs
     id="defs1" />
  <sodipodi:namedview
     id="namedview1"
     pagecolor="#ffffff"
     bordercolor="#000000"
     borderopacity="0.25"
     inkscape:showpageshadow="2"
     inkscape:pageopacity="0.0"
     inkscape:pagecheckerboard="0"
     inkscape:deskcolor="#d1d1d1"
     inkscape:zoom="0.78877551"
     inkscape:cx="597.12807"
     inkscape:cy="432.94955"
     inkscape:window-width="1920"
     inkscape:window-height="1009"
     inkscape:window-x="-8"
     inkscape:window-y="-8"
     inkscape:window-maximized="1"
     inkscape:current-layer="svg1" />
  <path
     fill="none"
     stroke="#000000"
     stroke-width="37.7833"
     stroke-linecap="round"
     d="m 211.68552,210.21334 a 112.62153,112.62153 0 1 0 -1.47218,1.47218 l 125.13505,125.13504 m -66.98406,-86.12235 80.96974,80.96974 -19.13831,19.1383 -80.96972,-80.96974"
     id="path1"
     style="fill:#282828;fill-opacity:1;stroke:#282828;stroke-opacity:1" />
  <path
     style="font-weight:bold;font-size:173.333px;font-family:'Rubik Dirt';-inkscape-font-specification:'Rubik Dirt Bold';fill:#fafafa;stroke:#ffffff;stroke-width:1.4"
     d="m 115.62127,86.701879 -2.94666,-1.039998 -2.25333,-3.813326 0.17334,-4.853324 0.34666,-3.46666 0.86667,-6.066654 0.86666,-6.586654 1.04,-2.946661 5.02666,-1.559997 2.77333,0.346666 2.59999,-0.346666 15.2533,0.693332 5.37333,-1.039998 3.81332,2.079996 2.08,5.893322 -1.38667,3.813326 0.69334,11.093311 v 3.46666 l -1.21333,3.813326 -9.01332,1.213331 -3.11999,-0.866665 -3.64,0.346666 -3.98666,0.173333 -7.62665,0.693332 z m -1.90666,-27.21328 -0.17333,2.426662 0.86666,2.079996 0.34667,-2.426662 2.94666,-0.866665 -0.17333,-1.73333 -2.08,-0.866665 z m 18.54663,2.946661 -1.73333,-1.73333 -1.56,1.73333 0.34667,0.866665 -0.69333,1.039998 -1.21333,-1.039998 0.34666,1.039998 h 0.86667 l 0.17333,0.519999 -0.52,2.773328 0.17334,1.73333 -1.38667,1.73333 1.21333,-0.519999 -0.52,1.039998 1.04,1.906662 0.86667,-1.386663 0.52,1.906662 -1.04,1.73333 1.55999,0.866665 1.90667,2.773328 -0.86667,0.693332 0.86667,1.906663 0.86666,1.039998 1.38667,1.213331 2.07999,-0.173333 1.38667,-0.173333 -1.04,-2.599995 2.25333,-0.693332 1.38666,-1.213331 -1.56,-0.519999 1.73333,-0.866665 -2.25332,-1.386664 1.21333,-0.693332 0.86666,-0.519999 1.21333,0.173333 1.04,0.346666 0.69333,-1.039998 1.04,0.693332 1.04,-0.693332 -0.52,-1.906663 -1.04,-1.559996 -1.56,-0.173333 -0.34666,-2.079996 0.86666,-1.213331 h 0.86667 l 0.17333,-2.946661 -1.73333,-0.173333 -1.56,1.559997 -0.34666,-1.559997 1.56,-0.693332 v -1.213331 l 2.07999,-2.079996 0.17333,-1.73333 -1.55999,-1.039998 -1.56,2.253329 -1.21333,0.346666 -1.21333,-0.173333 1.56,2.426662 -1.38667,0.693332 h -2.42666 l -0.17333,0.866665 -1.38667,-0.519999 -1.73333,0.693332 -0.69333,0.866665 0.17333,0.866665 1.73333,-0.346666 2.42667,2.426662 -3.29333,1.213331 1.56,0.866665 0.51999,1.906663 -2.25332,-1.559997 0.17333,1.039998 -2.08,-1.386664 -1.21333,1.213331 v 0.693332 l -0.52,-1.039998 0.52,-2.426662 0.52,-1.73333 -0.17333,-1.559997 0.86666,0.519999 -1.04,-1.386664 1.21334,0.173333 1.73333,-1.386664 h 1.21333 l 2.07999,-0.693332 0.34667,-1.039998 1.04,-1.039998 -0.52,-1.386664 -1.38667,1.559997 z m -12.13331,-2.426662 -0.52,1.559997 2.25333,-1.906663 -0.17333,-0.173333 -0.34667,-0.866665 h -0.86666 z m 7.45332,0.173333 v 1.559997 l 2.6,-1.73333 -1.38667,-0.693332 z m -4.33332,-0.173333 -1.21334,-0.173333 -1.38666,2.079996 1.04,2.079996 1.56,0.346666 0.17333,1.386664 -0.69333,1.039998 h 1.03999 l 2.25333,-0.693332 v -1.73333 l 0.17334,-1.906663 1.38666,-0.346666 -0.86666,-0.346666 -0.86667,-1.73333 z m -4.16,0.866665 -0.34666,-0.866665 -1.21333,1.906663 1.38666,0.346666 z m 27.03995,1.213331 -1.73333,1.213331 0.17333,2.079996 z m -8.66665,3.119994 -0.17333,-0.693332 1.04,0.693332 z m -20.97329,-0.346666 -1.04,1.039998 0.86667,-0.173333 z m -2.25333,3.293327 2.08,0.519999 1.38666,-1.386664 -0.52,-2.079996 -1.73333,1.906663 -1.21333,-0.866665 z m 19.4133,0.173333 0.86666,-1.386664 -1.38666,-0.173333 -0.86667,1.039998 -0.34666,1.213331 1.03999,0.866665 0.86667,-1.039998 1.38666,-0.346666 z m -11.61332,2.599995 0.17334,-3.813326 -1.73333,0.866665 -0.17334,1.906663 z m -3.11999,-1.386664 0.17333,-1.559997 -1.73333,2.079996 z m 6.23999,2.426662 -2.25333,0.173333 -0.17333,1.21333 -2.6,0.173333 0.17333,2.426662 1.04,0.346666 1.04,1.213331 1.04,-0.173333 v -1.039998 l 1.21333,-0.693332 -0.17333,-1.213331 0.86666,-0.346666 0.17333,1.213331 1.38667,0.693332 1.21333,-1.039998 -1.90666,-1.386664 -0.34667,-1.906662 0.17333,0.866665 -0.17333,-2.599995 v -0.866665 h -1.38666 l -0.69334,1.213331 z m -9.87998,1.21333 -0.17333,-1.386663 -1.21334,-0.519999 z m 4.15999,1.213331 -0.69333,-1.559997 -1.56,-0.173333 -1.21333,1.386664 z m 13.17331,3.293327 -1.90667,-1.039998 1.38667,-1.039998 -0.69333,-2.079996 2.07999,0.519999 1.04,-0.519999 0.34667,0.866665 -1.21333,0.346666 1.90666,0.173333 0.34666,0.693332 0.86667,1.213331 -2.42666,1.039998 -0.69333,-1.386664 z m -13.69331,-1.213331 -1.04,-0.693332 -1.21333,0.519999 z m -5.89332,-0.173333 0.52,1.73333 0.52,-2.079996 z m 15.94663,2.599995 0.86667,-0.866665 -0.52,-1.213331 z m -4.33332,-1.73333 1.38666,1.039998 -0.52,2.079996 1.38667,1.386664 2.07999,-0.519999 0.17334,-0.866665 1.21333,0.519999 -0.86667,-1.559997 -2.42666,-0.693332 -0.34666,-1.039998 z m 6.93332,2.946661 -0.17333,-2.253329 -0.86667,-0.693332 -0.34666,0.866665 -0.52,1.213331 0.69333,0.866665 z m -8.31998,4.159992 1.55999,-1.73333 -0.69333,-2.079996 -2.08,-0.519999 z m -6.23999,-2.773328 0.34666,-1.213331 -1.55999,1.386664 z m 28.94661,0.173333 -0.34667,-0.866665 -1.56,0.519999 -1.21333,-0.693332 -0.34666,0.866665 -1.56,-0.866665 1.38667,2.079996 -1.21334,0.519999 0.34667,1.559997 2.59999,1.039998 1.38667,-2.426662 1.21333,0.346666 -0.69333,2.079996 2.07999,-1.906663 -0.69333,-1.386664 -0.34666,-0.173333 z m -13.69331,1.73333 h 0.86667 l -1.04,-1.559997 -1.90666,-0.173333 -0.86667,1.73333 -0.17333,0.866665 -3.29333,-2.079996 v 2.426662 l 1.90666,1.386664 2.25333,-1.039998 2.25333,-0.693332 z m -12.65331,1.039998 2.42666,-0.693332 -3.98665,-1.039998 z m 31.89327,89.13318 0.52,3.46666 -2.07999,6.75998 -0.52,13.51998 -6.06666,1.73333 -3.29332,-0.17334 -3.29333,-0.34666 -12.65331,1.21333 -5.37332,-0.69333 -3.63999,-0.34667 -2.94667,-0.69333 -1.73333,-3.81333 v -9.87998 l -0.34666,-2.94666 0.86666,-3.29332 -0.34666,-3.98666 -0.17334,-3.64 -0.69333,-6.58665 1.04,-6.75999 -0.69333,-6.93332 0.34666,-3.98666 -0.34666,-6.06665 0.69333,-9.35998 -0.17333,-14.55997 1.04,-6.93332 3.46666,-0.86667 3.46666,0.17334 h 3.11999 l 6.75999,0.51999 3.81332,-0.51999 7.62665,0.17333 6.23999,0.52 3.81333,1.21333 0.34666,5.54665 0.86667,2.6 -0.52,4.33332 0.17333,7.10666 -0.34666,7.10665 0.69333,4.33332 0.52,2.77333 -1.56,5.89332 0.52,3.29333 -0.69333,3.63999 0.86666,3.12 -0.34666,6.75998 1.21333,3.81333 z m -19.93329,-60.14655 0.69333,1.38666 0.17333,-0.86666 z m -3.46666,1.21333 -1.04,1.21333 3.29333,0.69333 -0.52,-1.73333 z m 7.10665,2.25333 -1.21333,-1.73333 0.17333,1.21333 z m 2.08,0 -1.21333,0.17333 1.73333,1.73333 0.34666,-1.04 z m -8.66665,7.79998 -0.52,1.21333 1.04,1.56 1.90666,-0.17333 1.21333,0.17333 -2.25333,-1.73333 -1.04,-1.56 v -1.03999 z m -10.05331,2.42667 -0.86667,0.86666 0.17333,1.38666 z m 12.99997,2.07999 -1.38666,0.86667 v 1.55999 l 1.38666,0.69334 z m -11.95998,3.81333 4.15999,-1.90667 -1.90666,-1.38666 -2.25333,1.04 -1.03999,1.38666 -1.21334,0.34667 -0.86666,-0.52 -0.69333,-1.38666 -0.69333,-1.21334 0.17333,1.73333 -1.04,0.69334 -0.86666,-0.17334 -0.17334,1.21333 -0.34666,1.73333 1.55999,0.34667 1.38667,-0.86666 1.21333,1.21333 -0.52,1.55999 1.21333,1.21333 1.73333,-0.51999 -2.42666,-2.25333 z m 1.90667,2.07999 1.73333,-1.03999 -0.17334,-2.08 z m 18.02663,-2.59999 -0.17334,1.04 0.86667,0.52 0.17333,-2.08 z m -6.23999,1.04 v 1.21333 l 0.86666,2.07999 1.38667,1.04 1.90666,-1.38666 -0.34666,-2.25333 -2.08,-0.86667 z m -5.02666,2.07999 -1.38666,1.21333 1.04,-0.17333 z m -16.63996,3.98666 0.86666,1.56 1.38666,-2.94666 0.86667,-0.34667 0.17333,-1.21333 -1.04,-0.86666 -1.21333,1.73333 0.86667,0.69333 -1.04,-0.17334 z m 9.18664,-2.59999 1.21333,-0.86667 h -0.86666 z m 8.66665,0.69333 h 2.6 l -1.38667,-0.86667 z m -12.47997,3.98666 1.04,-1.21333 -0.52,-1.38667 -2.6,0.86667 0.52,1.55999 z m 3.63999,-0.17334 1.38666,-1.90666 -1.21333,0.52 z m 3.46666,-1.21333 0.34667,2.08 2.07999,0.86666 z m 20.62663,0.17334 -1.38667,1.03999 0.34667,1.73333 z m -30.33328,4.15999 0.34667,1.21333 1.21333,0.17333 z m 11.26665,0.34666 -0.86667,1.04 2.08,-0.69333 z m -12.13331,4.50666 1.04,-3.46666 -1.56,1.38667 z m 15.59997,-1.90666 0.34666,1.04 1.04,0.17333 z m -15.25331,7.10665 -0.17333,-3.81332 -1.04,2.07999 z m 31.89327,-2.42666 0.86667,0.86666 -0.52,-1.73333 z m -23.91995,3.29333 v -1.21333 l -2.07999,-0.34667 v 1.21333 l 0.86666,0.86667 z m 7.79999,1.38666 1.55999,-0.86666 -2.94666,-1.73333 -1.90666,-0.34667 1.73333,2.25333 z m -2.42667,4.50666 1.21334,-0.17333 -2.08,-0.86667 z m -11.78664,0.86666 2.6,0.86667 -1.04,-1.21333 z m 26.34662,1.38667 2.94666,-1.38667 -1.90667,-0.17333 z m -11.43998,1.38666 0.17333,-1.73333 -1.04,-0.17333 -0.52,0.86666 0.34667,1.04 z m 10.22665,1.73333 -1.38667,-0.52 0.17333,-1.21333 -1.38666,-1.38666 -1.73333,0.69333 -0.52,1.73333 2.25333,0.52 -0.86666,0.69333 0.17333,2.08 z m -0.86667,3.46666 -0.86666,-0.17333 2.25332,-0.52 -2.42666,-0.69333 -2.42666,2.42666 0.69333,2.07999 3.46666,-1.03999 z m -25.82662,3.29333 1.56,-0.86667 -1.73333,-2.59999 -1.38666,1.04 v 1.73333 z m 21.83996,5.89332 1.21333,-1.04 -0.17333,-1.56 -2.42666,1.90667 z m 8.83998,5.89332 0.69334,-2.94666 -1.56,0.52 -0.34667,1.38666 z"
     id="text2"
     aria-label="i"
     sodipodi:nodetypes="cccccccccccccccccccccccccccccccccccccccccccccccccccccccccccccccccccccccccccccccccccccccccccccccccccccccccccccccccccccccccccccccccccccccccccccccccccccccccccccccccccccccccccccccccccccccccccccccccccccccccccccccccccccccccccccccccccccccccccccccccccccccccccccccccccccccccccccccccccccccccccccccccccccccccccccccccccccccccccccccccccccccccccccccccccccccccccccccccccccccccccccccccccccccccccccccccccccccccccccccccccccccccccccccccccccccccccccccccccccccccccccccccccccccccccccccccccccccccccccccccccccccccccccccccccccccccccccccccccccccccccccccccccccccccccccccccccccccccccccccc" />
  <text
     xml:space="preserve"
     style="font-weight:bold;font-size:192px;line-height:0.1;font-family:'Rubik Dirt';-inkscape-font-specification:'Rubik Dirt Bold';text-align:start;writing-mode:lr-tb;direction:ltr;text-anchor:start;fill:#fafafa;stroke:#fafafa"
     x="448.79691"
     y="327.08926"
     id="text3"><tspan
       sodipodi:role="line"
       id="tspan3"
       x="448.79691"
       y="327.08926"
       style="line-height:0.1;fill:#282828;fill-opacity:1" /></text>
</svg>
