<?xml version="1.0" encoding="UTF-8" standalone="no"?>
<svg
   width="1230.3051"
   height="377.52307"
   version="1.1"
   id="svg1"
   sodipodi:docname="logo_blanc.svg"
   inkscape:version="1.4 (86a8ad7, 2024-10-11)"
   xmlns:inkscape="http://www.inkscape.org/namespaces/inkscape"
   xmlns:sodipodi="http://sodipodi.sourceforge.net/DTD/sodipodi-0.dtd"
   xmlns="http://www.w3.org/2000/svg"
   xmlns:svg="http://www.w3.org/2000/svg">
  <defs
     id="defs1" />
  <sodipodi:namedview
     id="namedview1"
     pagecolor="#ffffff"
     bordercolor="#000000"
     borderopacity="0.25"
     inkscape:showpageshadow="2"
     inkscape:pageopacity="0.0"
     inkscape:pagecheckerboard="0"
     inkscape:deskcolor="#d1d1d1"
     inkscape:zoom="1.115497"
     inkscape:cx="591.66452"
     inkscape:cy="212.90958"
     inkscape:window-width="1920"
     inkscape:window-height="1009"
     inkscape:window-x="-8"
     inkscape:window-y="-8"
     inkscape:window-maximized="1"
     inkscape:current-layer="svg1" />
  <path
     fill="none"
     stroke="#000000"
     stroke-width="37.7833"
     stroke-linecap="round"
     d="m 211.68552,210.21334 a 112.62153,112.62153 0 1 0 -1.47218,1.47218 l 125.13505,125.13504 m -66.98406,-86.12235 80.96974,80.96974 -19.13831,19.1383 -80.96972,-80.96974"
     id="path1"
     style="fill:#fafafa;fill-opacity:1;stroke:#fafafa;stroke-opacity:1" />
  <path
     style="font-size:192px;font-family:'Rubik Dirt';-inkscape-font-specification:'Rubik Dirt';fill:#fafafa"
     d="m 393.3769,177.90658 0.768,9.792 0.192,7.488 -0.576,6.528 -9.6,0.384 -3.072,-0.768 -4.224,0.768 -6.144,2.496 h -3.264 l -8.256,-1.152 -10.368,-2.496 -0.384,-10.176 -2.688,-6.336 0.192,-4.032 v -4.224 l 0.576,-3.84 0.768,-7.488 0.768,-3.648 v -3.648 l 0.192,-3.84 -1.728,-7.68 -1.536,-7.68 -7.488,-2.304 -4.416,0.384 -3.648,6.144 -1.536,7.68 -1.344,11.136 1.344,6.72 v 8.064 l 0.192,3.84 0.384,3.264 -0.576,3.456 v 3.648 l 0.768,7.872 -2.112,3.456 -11.712,0.384 h -3.072 l -7.296,2.112 -4.224,-1.152 -2.688,-0.384 -2.88,-0.576 -8.448,2.688 -2.496,-3.072 -3.84,-11.904 1.728,-6.72 -1.536,-6.336 0.384,-3.264 0.768,-9.024 -0.384,-7.488 0.384,-4.224 -0.768,-6.912 0.576,-3.072 0.384,-4.608 1.152,-10.944 -2.88,-8.64 0.768,-3.648 1.728,-6.336 3.264,-4.608 8.64,-1.344 7.104,1.536 6.336,-0.768 3.456,-0.768 11.904,3.648 3.072,3.072 0.192,5.568 1.728,-2.688 5.376,-4.8 3.264,-2.112 8.64,-2.304 8.064,-2.688 3.456,0.576 12.672,2.88 3.84,2.496 6.912,2.88 7.68,9.408 2.304,3.072 3.264,19.968 0.768,7.104 1.152,11.328 0.192,4.032 -2.304,6.336 z m -38.016,-71.808 -2.304,0.384 3.456,2.88 2.112,0.768 1.536,1.152 1.536,0.576 -0.576,-3.264 -1.728,-0.192 -0.96,-0.96 1.92,0.192 3.264,-1.92 -1.152,-2.112 -2.304,0.192 -1.152,1.92 0.576,1.152 h -1.344 l -1.92,0.192 z m -41.856,0.768 -3.84,-0.768 0.768,1.92 1.728,0.192 z m 32.448,-0.192 -1.92,0.192 0.192,3.264 h 1.92 l 0.768,-1.728 z m 24.192,0 -2.112,1.536 0.384,2.496 0.192,0.96 1.152,1.152 1.92,-1.344 -0.96,0.384 -0.576,-1.344 2.496,-0.384 -0.192,-2.304 z m -2.304,2.496 0.192,-2.112 -3.84,1.92 1.344,0.768 -1.152,0.576 1.344,0.768 v 0.96 l 1.344,-1.536 z m -62.208,-0.192 -0.192,1.536 0.192,2.496 2.112,0.96 0.576,-1.728 1.536,-1.152 v 1.536 l 1.152,-0.768 0.96,1.344 1.92,-1.344 -0.384,-2.304 -2.112,-0.96 -1.728,0.768 1.152,-0.576 -1.152,-0.768 -1.152,0.576 -0.96,-1.344 z m -8.256,-0.96 -2.112,1.536 0.384,2.688 2.496,1.152 z m 21.312,1.728 -1.152,0.384 2.304,0.384 1.92,0.384 -0.768,-0.96 -0.576,-1.152 h -1.152 z m 55.296,-0.576 -1.344,3.264 1.344,-1.152 3.264,-0.192 -1.92,-0.96 -1.152,-0.384 z m -88.896,0.96 -0.768,0.96 0.384,0.96 1.152,0.192 z m 58.56,1.152 -3.456,0.192 0.96,1.536 1.728,-0.192 z m -11.904,2.88 2.112,1.536 0.96,-1.152 -0.576,-1.536 h -1.536 z m 14.4,-1.152 -1.92,1.728 0.384,2.496 z m 8.064,1.536 -1.728,1.344 2.112,2.88 1.728,-1.152 0.192,-1.728 1.536,-0.384 -0.768,-2.496 -1.536,0.384 0.192,1.92 z m 24.384,0.192 -0.576,-1.152 -2.688,-0.576 -1.728,1.152 v 1.92 l -1.152,0.192 0.384,-2.304 -0.96,0.384 0.384,-1.152 -3.648,0.96 1.92,1.152 -0.192,1.92 1.536,0.96 -0.96,0.96 4.416,-1.344 -2.88,-0.768 2.88,-1.92 1.536,0.192 z m -63.36,1.344 -0.96,-2.304 -2.112,-0.192 -0.96,2.112 -0.768,0.96 2.304,0.96 -1.92,2.112 3.072,-1.92 z m -9.792,-1.92 -1.152,-0.384 0.384,2.304 0.96,-0.768 z m -2.88,0.768 v 0.96 l 0.96,0.384 z m 60.096,1.728 0.384,-1.536 -1.728,1.92 z m 11.52,-0.576 1.536,-0.192 0.96,-0.384 h -0.576 z m -24.192,3.456 1.92,-1.344 -0.192,-2.304 z m -9.792,-0.768 -1.728,0.192 0.576,-1.152 1.152,0.192 -0.384,-0.96 h -1.344 l -1.728,-0.96 -1.536,1.152 3.072,1.728 h -2.88 l 0.576,2.304 -0.768,1.152 0.576,1.536 1.152,-0.768 1.344,1.344 -0.384,-1.728 1.536,-1.152 z m 21.12,-2.112 -0.96,-0.576 -0.96,0.576 z m 14.592,-0.576 0.384,0.96 0.96,0.192 z m -52.8,1.152 -1.728,-0.576 -1.536,1.152 3.648,1.344 -0.192,-0.96 h 0.96 z m 17.472,1.152 1.152,0.96 1.152,0.384 1.344,-0.96 -1.728,-1.92 -1.344,0.192 z m 20.736,-0.192 1.92,-1.344 -1.344,0.192 z m 18.432,-1.152 -0.576,0.576 0.384,1.728 -0.96,-0.384 0.96,1.152 -2.496,-0.768 -0.576,0.96 -4.224,-0.768 -0.576,2.496 1.536,2.112 v 2.112 l 3.84,-2.112 -0.768,-1.152 0.384,-2.112 0.384,2.112 1.92,0.576 -1.92,1.728 2.112,-0.384 0.576,-1.536 1.344,-1.344 v -0.96 l 0.576,-0.96 -2.112,-0.768 z m -10.752,0.576 -2.496,1.152 -0.192,2.688 z m -13.056,1.92 0.576,-1.536 -2.304,1.728 z m 26.304,8.64 -1.344,1.728 h 1.152 l 1.152,0.384 2.112,-1.536 -0.192,-2.688 1.92,1.92 -0.192,-3.072 -0.192,-1.92 -0.192,-1.536 0.192,-1.536 v -0.576 l -1.152,-0.768 -1.344,0.576 -1.152,0.576 0.576,0.576 0.768,0.96 v -1.536 l 1.728,0.192 -1.152,2.112 -0.768,3.264 0.768,0.768 z m -23.232,-9.216 -2.688,0.768 -0.576,2.688 z m 5.76,4.224 -1.344,-0.576 -0.768,-3.648 -0.96,2.496 -1.92,-0.768 2.304,2.88 1.536,0.576 z m -36.864,-0.192 4.224,-0.768 -1.536,-1.536 -1.92,0.384 z m -28.608,-1.92 -1.344,0.96 0.384,1.92 1.728,0.576 1.536,-1.344 -2.304,-1.152 z m 7.68,2.304 -1.92,-1.92 -0.96,1.152 0.384,1.344 1.536,0.384 z m 47.808,-0.768 -0.96,1.92 1.344,1.728 1.92,-0.192 1.152,-0.576 1.344,-1.152 -0.768,-1.92 -2.112,-0.96 0.96,1.152 0.192,1.344 z m -12.672,-0.576 -0.576,1.728 3.456,-0.768 -1.344,-1.344 z m -22.464,2.688 4.8,-0.192 -2.496,-1.344 z m -7.872,-0.384 -1.92,4.224 2.304,-0.192 0.96,-2.112 z m 76.416,0.768 -1.152,-0.192 1.152,2.112 0.576,-0.96 z m -18.432,-0.192 h -0.96 l 0.192,1.728 z m -44.352,1.92 1.728,-1.344 -0.96,-0.384 -0.96,0.768 z m -19.584,5.184 0.384,-0.96 1.344,0.192 -1.92,-2.496 -0.96,-3.072 -2.304,0.96 -0.192,0.96 -1.344,0.576 0.96,0.768 0.96,0.96 -0.576,0.96 3.456,0.192 z m 32.256,-2.688 1.536,-1.536 -0.576,-1.92 z m -15.744,-1.92 1.344,-0.192 0.768,-1.152 z m 8.64,0.576 0.768,-1.92 -0.96,0.768 z m 33.6,0.576 0.576,-2.304 -1.92,1.92 1.152,-1.728 -3.264,1.536 2.112,0.192 -1.152,1.152 z m 4.8,-0.384 -0.576,-1.536 -0.96,0.192 -0.192,0.96 z m -53.76,0.384 v 2.112 l 1.344,-0.576 0.96,1.728 2.496,0.192 -2.112,-4.416 -1.536,0.96 z m 40.704,0.576 -2.112,-1.152 0.768,1.152 z m -31.104,0.576 -0.192,-1.344 -2.304,0.384 0.192,1.152 1.344,0.576 z m 42.624,-0.96 -2.688,-0.192 0.576,1.344 h 1.344 z m 2.112,4.224 1.536,-1.92 -0.768,-2.304 -4.032,1.344 z m -20.736,-3.072 -0.96,0.96 0.192,1.344 1.344,0.384 0.96,-0.96 z m 26.496,1.536 0.96,-1.536 -2.304,1.344 -0.192,-0.96 -2.304,0.192 -0.96,2.112 1.344,1.92 2.304,-0.384 -0.192,-2.688 z m -8.448,1.152 -0.576,-1.536 -1.728,-0.384 z m -12.864,-1.536 -1.152,2.304 4.032,2.112 1.344,-2.304 0.384,1.728 v 1.344 h 2.304 l -0.384,-1.728 0.192,-2.304 -1.344,-0.192 -1.152,1.152 -1.536,-2.304 z m 24.384,3.456 1.344,1.152 2.496,-0.768 -1.152,-0.96 0.768,-1.344 -0.768,-1.536 v 1.536 l -0.96,-0.768 -0.96,0.192 1.92,0.576 v 1.344 l -2.688,-2.304 z m 5.76,-0.192 2.112,-1.728 -0.96,-1.152 -1.536,0.192 -0.576,1.536 z m -99.072,0.768 0.96,-1.152 -0.384,-1.536 -1.536,-0.384 -0.576,2.688 z m 60.48,0.384 3.264,-2.496 -1.92,-0.768 -1.536,1.152 h -1.152 l -0.96,1.728 z m -28.416,0.768 1.92,0.768 1.728,-1.152 -0.192,-0.96 1.92,0.768 -0.384,-1.92 -2.112,-0.192 -1.344,-0.576 z m 55.872,-0.576 h 1.536 l 2.112,0.384 -0.384,-1.152 h -1.536 l -0.576,0.384 z m -49.344,0.384 2.688,-0.384 -1.536,-0.576 z m 44.352,-0.384 2.112,2.112 -0.384,-1.728 z m 5.376,0.768 -1.92,-0.192 -0.96,1.536 z m -64.32,4.224 0.192,-2.112 -1.536,-1.344 z m 63.936,-1.344 3.456,1.728 v -1.92 l -2.112,-0.576 0.192,-1.344 z m 13.056,0 -0.576,-1.92 -1.92,-0.192 z m -29.76,3.84 2.496,-0.384 -0.192,2.304 h 1.344 l 0.768,-1.152 -0.576,-1.152 h -1.344 l -0.576,-4.608 -2.688,0.384 -0.96,2.496 z m 5.184,-4.224 2.112,4.416 0.96,-1.344 0.96,1.152 -1.152,2.496 2.304,-0.96 -0.384,-2.304 -0.384,-0.192 -0.96,-0.768 -0.96,-2.304 z m 28.992,1.152 -4.8,0.384 0.384,2.688 2.304,1.152 2.304,-1.536 z m -79.68,2.496 1.344,1.536 2.496,-2.112 -1.152,-1.536 -1.92,0.384 z m -10.944,-1.92 -0.96,1.344 h 3.072 l -0.576,-1.344 z m 23.424,4.416 1.728,-1.728 -4.608,-1.536 0.384,2.496 z m 24.384,0.384 1.152,-0.384 0.768,1.536 1.728,0.192 0.192,-3.072 h -0.96 l 1.344,-0.768 -2.112,-1.152 -2.112,1.152 z m 22.848,-2.496 2.496,1.728 0.192,-1.536 -1.152,-0.96 z m 12.48,2.688 0.192,-1.344 -0.192,-1.152 -0.96,-0.384 -0.768,1.344 -0.96,-0.384 v 1.152 l 0.576,2.688 0.384,1.344 2.112,-0.192 0.192,-2.112 1.536,-1.344 z m -66.816,-2.688 0.192,0.96 1.536,-0.384 z m 76.8,4.416 -1.728,-1.728 -2.688,1.344 -1.92,-3.264 -1.344,2.496 1.728,4.8 -0.768,1.152 1.152,-0.192 0.576,0.96 0.384,-4.032 1.728,1.728 2.304,-0.768 z m -39.936,-2.88 -1.152,0.576 v 1.344 z m 2.688,4.992 1.728,0.768 -0.96,-3.264 v -0.96 h -1.344 l -0.96,0.768 h -0.96 l -0.96,0.192 0.192,3.264 1.92,-0.192 1.152,-1.728 z m 5.76,2.88 1.152,-1.536 -0.768,-1.728 -3.072,1.344 -0.192,-4.224 -1.152,2.304 1.344,1.92 v 1.344 l -0.96,1.92 1.344,1.728 1.344,1.536 -0.192,-0.96 1.92,-2.688 -0.96,0.576 z m -48.768,-5.376 -0.576,1.536 1.152,1.344 1.152,-3.264 z m 54.912,3.84 1.728,-1.152 v -2.112 h -3.648 v 2.112 z m 17.664,5.568 3.264,-0.384 1.536,-0.768 1.536,2.112 0.576,-1.152 -0.768,-1.152 h -0.96 l 0.192,-2.304 -2.688,1.344 -0.576,-0.96 -2.88,1.536 0.96,-1.536 -0.768,-0.768 -1.728,0.768 h -1.152 l 0.768,-3.648 -2.112,-0.384 -1.344,1.536 0.768,2.112 1.92,0.384 -1.344,0.768 -1.92,0.384 2.88,1.152 3.072,-0.768 z m -13.824,-4.608 1.92,-2.304 -1.728,0.576 z m -2.496,1.344 1.728,-3.072 -1.728,0.96 z m -51.264,1.152 1.152,-0.192 -1.344,-1.92 -0.576,1.152 z m -3.648,3.264 1.92,-0.192 -2.112,-3.072 -0.768,1.728 z m 63.36,0.768 4.032,-2.304 -1.92,-1.152 -1.92,1.152 z m -79.104,-1.344 4.224,-0.192 -2.112,-1.152 z m 85.056,2.304 0.768,-1.536 h -3.456 l 0.96,1.536 z m -20.16,-0.768 1.536,1.536 -0.384,2.496 2.496,0.384 1.92,-2.112 0.192,-0.96 -1.152,-0.192 -0.384,-0.96 -2.496,0.192 z m 14.784,0 -1.92,0.768 1.344,3.456 1.92,-0.768 0.384,-2.112 z m -24.768,3.072 2.112,-0.576 0.576,-1.92 -4.032,0.96 z m 32.064,-0.576 0.96,0.768 0.96,-0.384 -0.768,-1.92 -0.96,0.576 z m -34.944,2.88 1.344,-0.384 0.192,-1.344 z m 40.896,0.192 1.536,-1.536 -3.648,1.152 z m -11.136,-1.152 -1.152,1.344 0.576,1.728 1.728,0.384 1.152,-1.344 z m 5.76,0.96 -1.728,-0.384 -1.152,1.344 z m 4.416,3.072 1.92,-0.96 -3.84,-2.496 v 2.112 l -0.96,-0.576 0.768,1.536 z m -22.656,-2.688 v 4.992 l 2.112,-1.152 v -2.496 z m 9.408,0.768 -2.112,3.072 1.92,-0.96 z m -14.976,2.496 0.576,-1.536 -3.072,0.576 0.96,1.152 z m 9.216,2.688 2.304,1.536 -1.92,-4.224 z m -72,0.96 0.96,-1.536 h -3.84 l 0.96,1.728 z m 49.536,1.536 1.344,0.576 -0.576,-3.072 -1.152,1.152 z m 5.376,0.768 0.576,-2.88 -1.728,-0.384 -1.152,1.344 0.576,1.728 z m 7.872,-1.92 0.96,-1.152 -2.112,-0.192 -0.96,2.304 0.576,1.344 z m 22.464,-1.152 -2.112,1.344 0.192,2.496 z m -19.968,0.768 -0.384,0.96 1.92,0.576 -0.384,-1.92 z m 22.08,5.76 -0.192,-0.96 1.152,-1.92 h -1.152 l -0.768,-1.152 v 1.152 h -2.688 l 1.344,2.112 0.768,2.496 z m -15.552,1.92 v -2.304 l -3.456,0.192 1.536,-0.96 v -1.92 l -3.264,2.112 1.152,0.768 0.192,2.304 1.92,1.152 z m -12.48,-4.224 -1.152,1.344 0.384,1.92 2.688,-2.88 z m -63.36,1.536 -0.576,0.96 0.384,0.96 1.728,-0.768 -0.384,-1.152 z m 64.896,0.768 3.264,0.576 -1.536,-1.344 z m 28.416,0.384 0.576,-0.96 -1.344,0.768 -1.728,1.152 z m -33.792,1.344 -1.536,2.112 4.224,-1.728 z m 27.456,0.576 -0.192,2.304 1.92,1.344 z m -85.248,1.92 -2.688,-1.536 0.96,1.536 z m 89.664,2.688 1.152,-1.152 -0.384,-1.728 -1.728,-0.384 -0.768,2.88 z m -89.088,1.536 1.152,-2.496 -4.224,-1.92 -1.152,2.496 1.536,2.112 z m 52.608,-2.688 -0.768,1.536 1.728,-0.192 v -0.96 z m 26.496,0.384 -0.768,1.92 2.88,-2.112 z m -19.392,3.072 1.728,0.576 -0.96,-3.648 -1.344,1.344 z m 10.368,-1.344 0.96,-0.192 -1.344,-1.344 z m 15.552,-1.344 v 2.112 l 1.728,1.152 1.92,-0.96 z m -31.68,3.648 0.96,-0.192 -1.536,-1.344 0.576,1.536 -1.152,-0.768 -2.112,3.072 1.728,1.152 1.92,-0.96 z m -55.104,2.496 -1.536,-0.96 2.112,-1.536 -2.112,-0.96 -2.496,1.152 -1.344,2.304 1.344,2.304 h 2.688 z m 94.848,0.192 0.576,-1.92 -1.344,-1.344 -2.112,1.92 -1.344,-1.152 2.496,2.88 z m -102.144,1.92 1.92,-1.92 -3.456,-3.072 -1.728,1.92 0.768,2.496 z m 67.008,-2.304 1.344,0.384 -0.768,-2.688 -0.96,0.96 z m 10.368,0.192 1.344,0.576 1.344,-0.768 -1.536,-2.304 -1.344,0.96 z m 13.824,-0.768 0.576,0.96 h 1.344 v -2.304 h -1.344 z m -24.768,2.112 0.768,-0.96 -1.728,-1.536 -0.96,0.96 0.576,1.344 z m -72.768,-0.768 1.536,-1.152 h -1.152 z m 98.688,2.688 1.92,-1.536 -0.96,-0.96 -1.152,0.192 -0.576,1.152 z m -3.648,3.072 2.112,-2.88 -1.728,-1.344 -1.92,0.768 -0.192,2.112 z m -12.864,-0.192 2.496,-3.072 -1.92,-0.192 -1.152,1.536 z m -70.656,-0.96 0.768,-1.536 h -1.728 v 0.96 z m 93.312,2.688 1.728,-3.072 -2.304,-1.152 -1.92,0.576 -1.536,0.576 3.264,2.304 h -1.536 l -1.152,1.728 0.96,1.92 z m -79.488,-1.536 -0.192,-0.96 -1.344,1.536 z m -17.856,3.072 0.576,-2.496 -3.072,3.264 z m 61.824,0.192 -1.344,-0.96 0.384,0.96 z m 16.512,0.192 2.112,1.536 -0.576,-1.344 z m 101.95202,-104.64 -3.456,6.336 -1.152,3.072 2.112,-0.192 3.84,-0.576 4.032,-0.768 8.256,1.92 7.68,1.152 0.768,2.688 0.384,7.104 0.768,3.264 -1.344,6.144 0.576,3.648 -1.536,6.336 -7.68,1.536 -10.368,0.96 -4.032,1.152 -3.072,-0.768 -0.192,3.072 -0.192,3.264 -0.384,3.84 1.728,11.904 -1.344,3.84 -0.96,8.064 -0.384,4.032 1.344,6.912 0.384,7.872 -0.576,7.488 -1.344,3.648 -3.072,0.384 h -9.024 l -6.528,2.112 h -3.456 l -8.064,-0.192 -7.104,-1.152 -3.648,-0.96 -1.152,-7.488 -0.96,-4.032 0.576,-7.296 0.384,-7.296 -0.384,-4.8 0.192,-3.456 -0.192,-8.256 0.768,-6.528 0.384,-4.224 -2.112,-9.216 v -3.264 l -3.264,0.96 h -3.264 l -2.496,0.576 -5.76,-1.536 -0.768,-3.648 -0.768,-3.84 -2.496,-7.488 v -6.912 l 1.152,-2.304 1.92,-7.104 11.328,-1.344 4.032,1.536 0.192,-3.648 0.576,-5.376 2.112,-9.024 0.96,-4.224 1.728,-2.688 2.112,-3.456 20.16,-12.672 7.296,-3.264 4.224,0.384 3.84,-0.768 8.064,2.304 3.456,-0.384 3.072,0.576 4.032,-0.96 11.328,0.96 0.96,5.952 0.576,10.752 -0.96,6.72 -0.96,7.488 h -6.144 l -2.496,-0.384 -7.488,2.688 -4.032,-0.576 z m -20.352,-25.152 0.768,1.152 0.192,-1.152 0.576,0.768 1.728,-0.384 0.96,-0.192 2.304,0.192 1.728,0.384 1.152,0.192 -0.384,-0.96 1.728,2.112 v 2.688 h 3.84 l 1.92,0.576 -0.192,2.304 1.152,-1.728 -0.384,-0.96 0.96,-0.768 v -2.496 l -2.88,0.192 -1.152,-0.576 1.92,-3.072 -0.96,-1.92 1.536,-0.96 v -1.728 l -3.84,0.768 -1.344,0.192 -0.192,-0.192 -2.304,-1.728 -0.384,2.496 -0.96,0.96 -0.768,-1.728 -2.304,-0.384 1.92,2.112 2.688,1.152 0.384,0.192 v 0 l -0.384,-0.192 -1.344,-0.192 -1.152,0.576 -0.768,0.96 0.192,-1.152 -2.88,1.344 -0.384,-2.304 -1.152,-0.576 -1.536,1.92 0.576,1.152 z m 17.472,-4.224 -0.192,2.112 -1.728,2.112 2.304,1.152 0.768,0.96 -0.384,1.152 1.92,0.576 -1.728,1.536 -0.192,1.344 1.728,1.536 0.96,-1.152 2.112,0.192 0.576,1.152 0.192,-2.304 0.768,-0.384 0.192,2.304 -0.192,1.92 -2.112,1.728 1.728,0.96 v 1.728 l -1.536,-0.192 -1.152,1.536 0.768,1.728 0.96,0.192 0.384,1.152 0.768,1.344 1.536,-2.688 -1.728,0.384 v -0.96 l 1.152,-1.536 2.112,0.96 0.768,1.728 0.96,-1.728 1.536,-0.576 -1.152,-0.768 0.384,-0.96 -2.496,-1.92 -1.728,-0.768 -0.384,-1.344 0.96,0.384 0.576,-0.96 1.344,-0.96 v 2.496 l 1.536,1.92 1.152,0.96 1.728,2.88 -0.576,0.96 -1.152,-0.384 -0.384,1.536 -0.96,-0.192 0.192,2.88 1.92,0.96 2.304,-2.112 -0.192,-1.728 1.344,-0.576 -0.96,0.576 0.192,2.688 2.688,0.96 1.728,0.768 1.728,-1.536 1.344,-2.112 v -2.304 l -2.112,0.96 -1.728,-0.384 -0.384,-0.96 1.728,-0.96 0.192,-2.112 -1.92,-1.152 v 4.224 l -1.344,-0.96 -0.576,-1.344 -0.96,-1.728 h 0.96 l 0.768,-1.152 -1.728,-0.576 1.344,-0.192 -2.496,-1.152 -0.96,0.768 -0.768,-1.344 h 2.304 l 2.496,0.192 0.96,0.576 0.192,0.96 h 1.92 l 0.384,-0.96 1.92,1.152 0.96,-1.152 -0.768,-1.92 -0.768,-0.96 -1.344,-1.536 -0.384,1.152 -1.344,-1.152 1.344,-1.152 0.192,-2.88 0.192,-1.92 -0.576,-1.536 -1.344,-0.192 -1.344,1.152 -1.152,-0.768 0.576,-1.92 -1.536,-1.536 -2.496,2.88 -0.96,0.768 -1.344,-0.576 -0.96,-0.96 -4.224,1.152 0.384,-1.152 -1.152,-1.152 -2.88,2.304 -2.112,0.192 z m 13.824,-0.768 -0.96,2.112 3.264,-2.304 z m -28.608,0.96 1.92,0.96 h 1.344 l 0.96,0.384 -1.728,-1.92 z m 7.296,1.92 1.536,1.536 -1.536,-1.344 -0.96,0.192 0.96,-0.768 h -0.576 l 0.192,-1.728 2.496,0.96 z m 30.912,-0.384 -1.536,-1.728 0.192,1.344 z m -8.256,2.304 v -2.112 l 0.96,1.152 z m -9.6,1.344 -1.92,1.344 0.192,-0.96 0.576,-2.496 z m 5.376,-0.384 0.768,-1.152 -0.384,0.96 0.384,2.112 0.96,-0.192 0.384,-0.96 -0.768,-0.96 0.192,-1.152 1.536,1.536 -0.192,1.152 h 1.152 l -2.688,1.344 -0.96,-0.768 z m -31.488,1.152 0.768,0.96 -0.768,0.96 0.576,1.728 1.92,0.192 1.344,0.96 0.192,-2.112 h 0.96 l -1.344,-1.728 -0.576,-1.728 -1.728,-0.576 z m 46.656,0.768 -1.152,-2.112 h -2.304 z m -52.224,-1.344 -0.96,1.536 0.96,1.344 2.496,-1.344 -0.768,-1.536 z m 34.752,2.304 -0.768,-0.96 1.536,-0.576 z m -33.024,1.92 -3.072,-0.96 1.152,1.536 z m 11.52,3.456 1.92,-0.96 0.192,-1.536 0.96,-0.96 -0.96,0.192 -2.688,-0.96 -1.344,0.576 1.152,2.304 z m 31.296,-3.072 1.536,-0.576 0.96,2.112 -0.768,0.768 v 0.96 l -1.344,-1.728 z m -3.264,-0.576 0.96,1.728 h 0.96 l -3.648,0.192 0.96,-0.384 z m -45.696,0.768 -0.576,1.92 1.152,1.344 1.536,-0.384 -0.192,1.152 1.536,-1.536 -1.152,0.192 z m 7.296,6.912 2.304,-1.536 -4.8,-2.304 2.112,-2.112 -1.92,-0.576 -1.536,1.536 1.344,1.344 -0.384,1.92 -1.344,1.728 -1.344,-1.728 h -1.152 l -0.192,0.96 -0.768,3.072 2.88,0.576 1.92,-1.344 0.576,-2.688 z m 34.368,-5.376 -1.344,0.384 -0.96,-0.768 0.768,-0.768 z m -30.144,1.728 2.688,0.576 -3.456,-3.072 z m 13.44,4.032 2.688,-0.384 1.152,-2.496 -0.96,-0.96 1.92,-1.728 -1.344,-0.576 -1.344,1.152 -2.496,0.768 -1.152,1.152 0.576,2.304 z m 5.184,-4.8 -0.96,0.576 v 1.152 l 1.92,-1.344 z m 3.648,7.488 v -0.96 l -1.728,-0.96 -0.192,-1.536 1.92,0.192 1.536,-2.304 -5.376,-0.384 0.96,2.496 0.576,1.152 -2.496,4.032 2.304,1.344 2.304,-1.344 z m -42.24,-5.76 1.92,1.344 -0.576,-1.152 z m 4.224,0.384 0.576,2.112 0.384,1.152 0.96,-1.344 1.536,-0.192 -0.96,-0.384 0.576,-0.96 h -1.728 l -0.768,0.96 z m 22.272,0.768 -1.728,-0.192 -0.96,1.344 0.768,1.728 h 1.728 z m 36.48,4.8 1.728,-1.92 -0.768,-2.496 -2.496,-0.192 z m -59.52,-4.416 -1.344,1.152 0.192,1.728 1.536,0.576 1.344,-0.768 v 1.536 l 1.344,0.96 1.536,-0.96 -1.536,-2.496 -1.344,0.768 z m 26.496,0.96 -1.728,0.96 h 1.152 z m 5.76,1.536 -1.152,-0.96 0.96,2.496 z m 3.264,0.192 -2.496,-0.768 1.152,1.152 z m -41.28,3.072 1.728,0.576 -0.96,-3.264 -1.152,1.152 z m 28.992,0.576 0.384,1.152 1.728,0.384 0.384,-1.536 1.92,-1.344 -0.192,-1.728 -3.264,0.96 -0.96,0.576 -2.112,-1.536 1.92,4.224 z m -6.912,-0.576 0.96,-0.768 -0.192,-1.152 -0.96,-0.384 -0.96,0.576 z m 10.752,3.072 -1.728,1.728 3.456,0.96 1.344,0.192 0.192,-1.536 0.576,0.96 v -1.344 l 1.344,-0.192 0.768,-2.112 -0.768,-1.92 -0.192,-1.344 h -2.304 v 1.344 l 1.152,0.576 -2.304,1.92 -0.192,0.96 z m -27.072,4.416 1.344,0.576 0.96,-0.768 0.192,-1.344 4.416,1.536 0.768,-2.688 -1.728,-1.92 -2.688,0.576 -0.384,1.152 -0.576,-1.344 -1.152,-0.768 v -3.264 l -2.112,1.152 0.384,2.496 v 2.496 l 1.536,-0.768 0.576,1.344 -1.536,0.192 z m 4.992,-6.72 -0.384,-1.152 -1.152,-0.192 -0.768,0.96 z m 30.912,3.072 1.344,-1.152 -3.264,-1.344 v 3.072 l 0.96,0.192 z m 11.328,2.304 0.192,-1.728 -0.96,-1.536 -1.92,-1.344 -2.304,1.152 2.688,1.728 -0.96,1.536 1.536,1.152 z m -9.216,-0.96 v -1.92 l -1.728,2.88 z m -3.84,2.688 -0.384,-3.648 -1.152,1.344 -2.496,2.112 1.152,1.536 1.92,-0.576 z m -24.576,-0.768 1.728,-0.384 0.576,-1.728 -3.456,0.768 z m 17.664,-1.344 -1.728,-0.384 2.112,2.112 z m -12.48,1.728 0.192,1.536 2.496,-2.112 -2.112,0.96 v -1.536 z m -12.864,2.496 1.536,-1.344 -0.384,-2.112 z m 15.36,2.88 1.152,-3.264 -1.92,-0.576 -1.344,1.344 0.384,1.92 z m 5.568,-1.92 -1.152,-1.92 h -2.112 l -0.96,1.92 h 1.152 l -0.768,1.536 1.728,-0.192 0.576,-1.344 z m -19.2,1.92 h 2.496 l 1.344,-2.304 z m 30.336,8.448 -2.112,0.96 v 2.304 z m -19.776,4.032 0.768,-1.152 -0.576,-1.152 z m 164.73616,49.728 0.384,4.224 -1.92,7.104 0.384,3.648 -4.608,8.64 -6.336,5.76 -5.568,4.608 -2.304,2.112 -8.832,2.88 -5.952,2.112 -8.64,0.192 -12.672,1.536 -3.456,0.384 -4.032,-1.344 -4.8,0.192 -3.456,0.192 -3.648,-2.112 -4.032,-0.96 -2.88,-1.344 -3.072,-0.576 -7.872,-3.072 -4.224,-1.92 -1.536,-3.264 -2.304,-3.456 -1.728,-3.072 -3.072,-4.032 -3.072,-2.88 -1.344,-7.872 -0.384,-11.904 0.192,-5.184 -0.576,-4.224 1.152,-8.64 1.536,-4.032 0.576,-3.84 0.192,-3.648 2.304,-3.84 2.112,-3.648 4.992,-5.568 13.056,-9.984 3.264,-1.536 7.872,0.576 3.648,-0.96 8.448,-1.92 8.448,0.384 3.264,0.768 6.912,-0.96 7.68,2.304 4.608,0.192 14.016,6.144 6.72,4.416 3.264,7.296 2.112,4.416 4.032,6.528 1.152,2.88 -0.192,4.416 0.96,8.832 0.768,9.024 z m -79.872,-53.184 -1.728,1.344 4.224,3.072 h 1.536 l 0.96,0.384 0.768,-1.536 -1.728,0.384 -0.96,-0.576 -0.576,-2.496 -0.96,-0.384 1.536,0.192 0.384,1.152 h 1.152 l -0.192,1.152 1.152,-0.96 1.344,-2.688 v -1.92 l -2.496,-1.344 -2.304,1.344 v 0.96 l -0.384,0.96 z m 11.52,0 1.536,0.96 -1.152,-0.192 -1.152,1.536 0.768,1.728 3.072,-1.344 -1.344,-1.728 1.536,-1.152 -0.192,-1.92 -1.536,-0.768 z m -16.704,-1.536 -0.384,1.536 2.496,0.768 0.576,-1.536 -1.152,-1.152 z m 28.416,3.264 -1.92,1.92 0.96,2.688 2.496,0.576 1.728,-2.304 1.344,-1.344 -0.384,-1.92 -1.344,1.152 0.576,-2.304 -1.728,-1.92 z m 8.256,-2.88 -1.152,0.96 1.92,1.92 0.96,-1.152 -0.384,-1.344 z m -24.768,2.88 1.92,1.536 0.768,-1.536 -1.536,-2.112 z m -14.784,0.384 -0.576,2.496 2.304,-2.496 v 2.112 l 1.92,-1.152 -0.192,-2.112 -1.92,-0.96 0.192,1.536 z m -2.88,2.688 -2.112,0.96 1.344,3.648 2.496,-1.536 0.576,-2.112 -1.728,-1.728 z m 16.128,0.96 -4.608,-0.96 2.112,1.728 z m 29.952,2.304 1.344,-0.576 0.192,-1.536 -1.152,-0.96 z m -28.8,2.112 0.96,-2.496 -1.728,-2.112 z m 9.024,5.184 -0.576,-2.496 -0.96,-0.768 -2.304,0.576 -0.192,-1.344 0.576,-4.032 -2.496,-0.384 -1.536,2.112 0.576,2.112 0.96,3.072 1.152,-0.384 3.264,2.88 0.576,2.112 z m -17.088,-5.568 -1.536,1.728 v 2.304 l 0.576,2.112 h 2.496 l 0.384,1.728 1.728,-1.92 2.496,-0.768 -1.344,-1.536 3.072,-2.304 -2.88,-0.96 -1.536,-0.192 -1.344,1.536 -1.92,-1.728 h 2.88 l -0.576,-1.92 -1.344,-0.768 -1.536,1.152 1.344,0.576 z m 24.768,1.536 h 2.112 l -2.304,-3.648 -0.96,1.92 z m -10.368,0 1.536,-0.96 v -1.728 l -1.536,-0.768 z m 30.144,-2.688 -2.496,4.416 h 2.496 l 1.152,-2.304 z m -59.52,0.96 -0.576,1.92 2.496,-2.304 z m 62.784,-0.384 -1.152,1.344 3.456,0.576 -0.576,-1.536 z m -52.8,0.768 0.96,0.576 0.96,-0.576 z m -6.336,3.456 1.536,1.152 -1.152,1.152 0.384,1.728 2.496,-2.496 -0.96,-0.192 1.536,-2.304 0.192,1.152 1.536,0.576 -0.192,1.344 -0.768,0.192 1.536,0.192 1.152,-0.768 v -1.344 l -1.344,-0.192 -1.344,-2.112 -1.92,-1.536 -2.304,0.96 z m 7.104,-0.96 -0.768,-2.112 -0.384,2.304 1.728,1.344 -0.384,-1.152 1.536,1.536 -0.384,-1.728 z m 23.232,-0.192 -0.768,0.96 0.576,1.344 h 1.344 l 0.768,-1.152 z m 25.728,2.88 3.84,0.96 0.576,-2.304 -1.728,-1.536 -2.304,0.768 z m -35.904,-2.496 -0.96,1.728 -1.344,-0.384 -0.576,2.304 1.728,1.92 2.688,-1.536 h 0.96 l -1.152,-1.728 z m 49.152,0.384 -2.304,1.344 0.96,1.344 1.536,-0.192 0.576,-1.344 z m 1.344,2.688 3.072,1.536 0.768,-1.728 -1.152,-1.728 -1.92,0.192 z m -31.488,-1.728 -1.152,0.96 3.072,0.96 -0.384,-1.536 z m 39.168,4.8 0.576,-2.688 -1.92,-1.92 z m -41.28,-2.112 -2.112,0.96 0.576,1.152 1.344,0.192 0.768,-1.152 z m -11.904,7.488 1.152,1.728 1.536,-1.152 1.152,-2.304 -1.344,-0.768 0.768,-1.344 -2.112,-1.92 v -1.536 l -2.496,2.88 1.536,0.768 0.192,1.728 0.768,0.384 -0.192,0.96 z m -17.664,-6.912 -0.768,1.728 0.96,-0.384 2.112,1.536 -0.576,-1.344 -1.536,-0.192 z m 2.304,1.728 0.192,1.728 1.536,0.768 -0.384,-3.456 z m -14.592,-0.576 -1.728,0.384 0.768,2.88 1.536,-0.384 0.576,-1.728 z m 76.416,3.648 -2.304,-3.648 0.192,2.496 z m -14.784,-2.496 h -0.96 l -0.384,0.96 h 1.92 z m -44.928,2.496 -4.224,-2.112 1.536,2.304 z m 44.544,2.496 1.344,-2.112 -3.648,-2.304 -1.344,2.112 1.152,2.112 z m -65.472,8.448 1.728,0.576 1.536,-1.152 -0.384,-1.152 1.152,0.96 0.96,2.688 1.536,0.192 -0.768,1.536 2.88,-1.728 -1.152,-0.192 1.344,-0.576 0.768,-1.728 -0.768,-0.576 -1.152,1.536 -0.96,-0.96 -0.576,-1.344 1.152,-0.576 -0.384,-0.192 -1.152,-0.576 -1.152,-1.344 0.192,-0.384 1.152,-1.536 1.152,-1.728 3.648,-2.688 -2.304,-0.96 -1.92,1.536 0.192,2.112 -1.152,-0.192 -2.112,-0.384 -0.384,-1.92 -0.96,3.264 -2.112,-1.92 -3.072,3.456 1.92,1.92 2.496,-0.96 0.576,-1.92 0.96,1.92 -1.152,0.96 2.304,-0.384 -2.112,0.576 -0.192,1.536 -2.112,0.576 z m 22.272,-10.56 0.576,1.344 h 1.536 l 0.192,-2.688 h -1.536 z m -5.952,-0.384 -2.304,1.152 4.032,4.224 0.96,2.496 0.96,-0.384 0.576,-1.344 -0.384,1.92 2.496,1.344 0.96,1.152 -0.384,-2.496 2.112,-0.576 -0.96,-1.536 0.96,-1.344 3.264,1.728 -0.192,-2.112 -1.728,-0.96 h -1.152 l -0.576,-1.536 -0.384,0.768 -1.728,0.384 -0.768,0.96 -1.152,-0.192 0.96,-2.688 -1.536,-0.384 -2.304,0.768 z m 18.048,8.064 2.688,0.384 -1.152,-2.304 -1.536,-0.192 1.152,-1.92 -2.688,-1.536 1.728,-1.728 -2.496,1.344 -0.768,1.344 0.192,-3.072 -2.304,-0.192 -1.344,1.728 0.96,2.112 1.152,0.192 -0.192,3.648 -0.576,1.536 0.96,1.344 1.344,-0.192 0.192,2.688 1.536,-0.192 2.112,0.576 1.728,-1.728 -1.344,-2.88 z m 19.776,26.88 1.344,-5.376 -0.192,-6.912 1.152,-4.608 -0.192,-4.992 0.192,-5.184 -10.56,-6.912 -3.84,1.344 -2.304,4.416 -1.536,7.872 0.576,3.456 0.192,3.84 0.192,3.456 -0.96,3.84 -0.192,9.984 9.024,3.84 3.456,-0.96 3.456,-3.072 z m -45.888,-31.872 -0.96,0.384 1.536,0.96 1.536,2.496 0.192,0.96 1.728,0.96 -0.96,1.92 1.536,-0.192 0.576,-3.264 0.768,-1.92 0.768,-0.96 h -2.688 l 0.192,-1.728 -2.304,-1.536 z m 76.224,0 -0.384,1.344 2.496,-0.576 -0.768,-0.96 z m -45.696,3.264 -0.576,-2.112 -1.92,-0.576 z m 23.232,-1.152 3.84,1.536 -1.536,-1.92 z m -25.536,-0.384 1.344,2.496 0.192,-1.728 z m 39.168,3.456 0.384,1.152 1.152,0.192 0.768,-0.96 -0.384,-1.152 z m -82.176,0.192 -0.192,1.92 1.92,-2.688 z m 35.136,2.112 0.192,-1.728 -1.536,-1.152 0.384,2.688 -0.384,-1.728 -2.688,-0.768 0.96,3.648 -0.576,0.96 -1.728,0.192 0.96,1.536 1.344,2.496 0.96,-2.688 z m -12.672,-0.384 h 1.344 l 0.768,-1.152 -0.576,-1.152 z m 16.896,-1.92 0.768,0.768 -1.92,0.192 z m -13.248,1.92 0.576,1.536 0.384,-2.88 z m -22.08,1.536 1.152,-0.384 -3.456,-0.96 0.96,1.728 0.96,0.768 0.96,-0.192 h 1.152 z m 33.792,1.536 -1.344,-1.152 -2.496,0.96 -0.384,2.688 0.192,1.152 2.688,0.576 1.728,-2.112 -1.152,0.384 z m -37.824,2.688 2.112,-3.648 -2.112,1.152 z m 90.432,0.768 3.456,1.728 -0.192,-2.304 -1.536,-1.728 -1.536,-1.92 -2.112,4.416 z m -62.784,0.576 1.728,-0.96 v -1.92 l -1.728,-0.96 -1.152,3.072 z m -3.456,-2.304 -3.264,-1.536 1.152,1.728 z m -8.448,6.144 -0.192,-2.112 1.344,-0.768 -0.384,-2.688 -2.304,-1.152 -0.768,1.536 -1.92,0.576 -0.384,1.152 -1.344,1.92 0.384,2.496 2.304,0.96 1.728,-1.728 z m 3.456,-4.608 2.304,2.112 1.536,0.96 -1.536,-2.688 v 1.152 l -0.768,-1.344 z m -17.472,1.536 -0.96,-0.96 -0.576,2.496 1.152,-0.384 z m 91.584,2.496 0.96,-0.768 -0.192,-1.152 -1.152,-0.384 z m -52.224,-0.96 -1.344,-1.152 -1.344,1.152 -0.576,1.152 -1.728,-0.576 -1.92,1.728 3.264,-0.384 1.92,1.152 v 1.152 h -0.96 l -0.96,1.536 0.96,1.536 1.344,-2.304 1.152,0.768 1.728,-0.96 -1.92,-1.152 1.152,-1.344 -0.384,-0.96 z m -10.56,-0.96 -1.152,2.496 1.344,-0.192 0.576,-1.152 z m 54.912,5.184 1.92,-3.648 -2.112,-0.96 -1.92,1.152 0.192,2.304 0.96,0.576 -0.768,0.96 0.768,1.728 z m -10.368,-3.264 0.192,1.92 1.728,0.96 1.536,-1.152 -0.192,-1.92 z m -72.768,6.144 3.84,-1.728 -1.344,-1.152 1.536,-0.768 -0.96,-1.536 -1.728,-0.384 -4.032,-0.576 1.344,2.304 0.576,1.152 2.112,0.192 -1.152,0.384 z m 15.744,-2.304 2.688,-2.112 -1.344,-1.344 -1.92,0.192 -0.576,1.92 z m 7.104,-0.192 h 1.92 l -2.112,-3.264 -0.768,1.728 z m 2.304,-1.344 0.96,-0.192 -1.344,-1.536 z m 9.792,3.072 -0.576,-2.112 -2.112,-0.768 -1.152,3.84 2.304,0.768 z m -8.256,-0.192 2.88,2.112 1.344,-1.536 -0.768,-1.728 1.152,-0.576 -3.84,0.576 z m -17.088,2.496 -0.384,0.96 1.92,-2.112 0.384,-1.344 -1.152,-1.536 -1.92,0.384 1.536,1.92 -1.344,-0.576 -0.768,2.304 z m 12.288,-3.456 -1.152,1.344 3.456,0.768 -0.576,-1.728 z m 14.976,2.88 3.264,-1.536 -2.112,-0.192 z m 1.92,3.648 v -1.92 l -0.96,0.384 z m -19.008,-1.728 -0.576,1.152 0.768,0.768 2.496,1.728 0.96,-1.536 -0.768,-1.536 -1.728,-0.192 -0.768,0.96 0.768,-1.344 z m 54.72,1.728 2.496,-0.576 -0.768,-0.96 -1.344,0.384 z m -63.744,0 -1.152,1.152 3.264,-0.576 -1.152,-1.92 z m 17.856,5.568 0.96,-1.728 -0.96,-1.728 -2.304,1.536 1.344,-2.112 -2.688,-1.728 -1.152,1.344 -0.384,2.304 2.496,0.576 0.768,1.536 z m -20.544,1.728 2.304,-1.728 -2.88,-3.648 -2.112,1.536 0.192,2.688 z m -4.608,-1.92 1.152,-1.344 -0.576,-1.728 z m 66.432,4.032 1.152,-1.92 -1.152,-1.728 -2.112,3.648 z m -44.928,-1.728 1.344,-1.344 -1.536,0.384 z m -6.72,-0.96 -1.152,0.384 2.112,0.192 z m -6.144,2.304 h 2.688 l -0.768,-1.152 h -1.344 z m 20.16,1.536 -1.92,-1.92 1.344,4.416 z m -14.208,0.384 h 1.152 l 0.576,-1.152 -0.576,-0.96 -1.728,1.152 z m 20.736,0.576 2.304,0.576 -0.384,-1.152 -0.96,-0.192 z m 0.384,2.688 1.344,0.768 1.344,-0.768 0.192,-1.536 z m -7.872,-0.768 3.456,0.768 -1.536,-1.536 z m 7.488,1.344 -1.152,-1.728 h -2.112 l 2.112,3.648 z m -1.536,3.84 1.728,-1.728 -4.224,1.152 z m 24.576,0.192 1.152,-1.536 -3.072,1.344 z m -22.464,0.576 -1.152,-0.576 0.192,2.688 1.152,-0.768 z m -13.248,1.344 -1.344,-1.728 -1.728,4.224 2.112,-0.192 z m -16.512,4.608 0.576,-2.304 -1.728,-1.92 -2.304,0.768 0.96,4.032 z m 25.152,0.384 4.608,-0.96 -0.384,-2.496 -2.496,-0.96 -2.112,1.728 z m -6.336,0.768 -0.192,-1.152 1.344,0.384 -1.728,-2.688 -1.344,1.152 0.384,1.728 z m -11.904,1.152 1.536,-2.88 -1.536,-0.96 -1.728,0.96 v 1.92 z m 4.224,2.304 0.768,-2.688 -1.728,-1.92 z m -6.336,-0.96 3.072,1.152 -1.152,-1.536 z m 35.712,4.416 1.728,-1.92 -4.992,-0.768 0.768,2.304 z m -19.968,-1.728 -1.344,-0.576 -0.384,1.152 z m -4.992,0.384 -2.304,-0.192 3.456,2.304 z m 7.872,1.152 1.344,-0.576 -2.304,-0.384 z m -7.104,2.688 2.688,0.192 -3.84,-2.688 z m 4.032,2.304 3.072,-3.456 -2.496,0.96 z m 9.216,0.384 0.768,-1.152 -0.384,-1.152 -1.344,-0.384 z m -5.952,0.384 1.152,0.384 -0.384,-2.304 -0.96,0.768 z m 200.44804,-23.616 0.768,9.792 0.192,7.488 -0.576,6.528 -9.6,0.384 -3.072,-0.768 -4.224,0.768 -6.144,2.496 h -3.264 l -8.256,-1.152 -10.368,-2.496 -0.384,-10.176 -2.688,-6.336 0.192,-4.032 v -4.224 l 0.576,-3.84 0.768,-7.488 0.768,-3.648 v -3.648 l 0.192,-3.84 -1.728,-7.68 -1.536,-7.68 -7.488,-2.304 -4.416,0.384 -3.648,6.144 -1.536,7.68 -1.344,11.136 1.344,6.72 v 8.064 l 0.192,3.84 0.384,3.264 -0.576,3.456 v 3.648 l 0.768,7.872 -2.112,3.456 -11.712,0.384 h -3.072 l -7.296,2.112 -4.224,-1.152 -2.688,-0.384 -2.88,-0.576 -8.448,2.688 -2.496,-3.072 -3.84,-11.904 1.728,-6.72 -1.536,-6.336 0.384,-3.264 0.768,-9.024 -0.384,-7.488 0.384,-4.224 -0.768,-6.912 0.576,-3.072 0.384,-4.608 1.152,-10.944 -2.88,-8.64 0.768,-3.648 1.728,-6.336 3.264,-4.608 8.64,-1.344 7.104,1.536 6.336,-0.768 3.456,-0.768 11.904,3.648 3.072,3.072 0.192,5.568 1.728,-2.688 5.376,-4.8 3.264,-2.112 8.64,-2.304 8.064,-2.688 3.456,0.576 12.672,2.88 3.84,2.496 6.912,2.88 7.68,9.408 2.304,3.072 3.264,19.968 0.768,7.104 1.152,11.328 0.192,4.032 -2.304,6.336 z m -38.016,-71.808 -2.304,0.384 3.456,2.88 2.112,0.768 1.536,1.152 1.536,0.576 -0.576,-3.264 -1.728,-0.192 -0.96,-0.96 1.92,0.192 3.264,-1.92 -1.152,-2.112 -2.304,0.192 -1.152,1.92 0.576,1.152 h -1.344 l -1.92,0.192 z m -41.856,0.768 -3.84,-0.768 0.768,1.92 1.728,0.192 z m 32.448,-0.192 -1.92,0.192 0.192,3.264 h 1.92 l 0.768,-1.728 z m 24.192,0 -2.112,1.536 0.384,2.496 0.192,0.96 1.152,1.152 1.92,-1.344 -0.96,0.384 -0.576,-1.344 2.496,-0.384 -0.192,-2.304 z m -2.304,2.496 0.192,-2.112 -3.84,1.92 1.344,0.768 -1.152,0.576 1.344,0.768 v 0.96 l 1.344,-1.536 z m -62.208,-0.192 -0.192,1.536 0.192,2.496 2.112,0.96 0.576,-1.728 1.536,-1.152 v 1.536 l 1.152,-0.768 0.96,1.344 1.92,-1.344 -0.384,-2.304 -2.112,-0.96 -1.728,0.768 1.152,-0.576 -1.152,-0.768 -1.152,0.576 -0.96,-1.344 z m -8.256,-0.96 -2.112,1.536 0.384,2.688 2.496,1.152 z m 21.312,1.728 -1.152,0.384 2.304,0.384 1.92,0.384 -0.768,-0.96 -0.576,-1.152 h -1.152 z m 55.296,-0.576 -1.344,3.264 1.344,-1.152 3.264,-0.192 -1.92,-0.96 -1.152,-0.384 z m -88.896,0.96 -0.768,0.96 0.384,0.96 1.152,0.192 z m 58.56,1.152 -3.456,0.192 0.96,1.536 1.728,-0.192 z m -11.904,2.88 2.112,1.536 0.96,-1.152 -0.576,-1.536 h -1.536 z m 14.4,-1.152 -1.92,1.728 0.384,2.496 z m 8.064,1.536 -1.728,1.344 2.112,2.88 1.728,-1.152 0.192,-1.728 1.536,-0.384 -0.768,-2.496 -1.536,0.384 0.192,1.92 z m 24.384,0.192 -0.576,-1.152 -2.688,-0.576 -1.728,1.152 v 1.92 l -1.152,0.192 0.384,-2.304 -0.96,0.384 0.384,-1.152 -3.648,0.96 1.92,1.152 -0.192,1.92 1.536,0.96 -0.96,0.96 4.416,-1.344 -2.88,-0.768 2.88,-1.92 1.536,0.192 z m -63.36,1.344 -0.96,-2.304 -2.112,-0.192 -0.96,2.112 -0.768,0.96 2.304,0.96 -1.92,2.112 3.072,-1.92 z m -9.792,-1.92 -1.152,-0.384 0.384,2.304 0.96,-0.768 z m -2.88,0.768 v 0.96 l 0.96,0.384 z m 60.096,1.728 0.384,-1.536 -1.728,1.92 z m 11.52,-0.576 1.536,-0.192 0.96,-0.384 h -0.576 z m -24.192,3.456 1.92,-1.344 -0.192,-2.304 z m -9.792,-0.768 -1.728,0.192 0.576,-1.152 1.152,0.192 -0.384,-0.96 h -1.344 l -1.728,-0.96 -1.536,1.152 3.072,1.728 h -2.88 l 0.576,2.304 -0.768,1.152 0.576,1.536 1.152,-0.768 1.344,1.344 -0.384,-1.728 1.536,-1.152 z m 21.12,-2.112 -0.96,-0.576 -0.96,0.576 z m 14.592,-0.576 0.384,0.96 0.96,0.192 z m -52.8,1.152 -1.728,-0.576 -1.536,1.152 3.648,1.344 -0.192,-0.96 h 0.96 z m 17.472,1.152 1.152,0.96 1.152,0.384 1.344,-0.96 -1.728,-1.92 -1.344,0.192 z m 20.736,-0.192 1.92,-1.344 -1.344,0.192 z m 18.432,-1.152 -0.576,0.576 0.384,1.728 -0.96,-0.384 0.96,1.152 -2.496,-0.768 -0.576,0.96 -4.224,-0.768 -0.576,2.496 1.536,2.112 v 2.112 l 3.84,-2.112 -0.768,-1.152 0.384,-2.112 0.384,2.112 1.92,0.576 -1.92,1.728 2.112,-0.384 0.576,-1.536 1.344,-1.344 v -0.96 l 0.576,-0.96 -2.112,-0.768 z m -10.752,0.576 -2.496,1.152 -0.192,2.688 z m -13.056,1.92 0.576,-1.536 -2.304,1.728 z m 26.304,8.64 -1.344,1.728 h 1.152 l 1.152,0.384 2.112,-1.536 -0.192,-2.688 1.92,1.92 -0.192,-3.072 -0.192,-1.92 -0.192,-1.536 0.192,-1.536 v -0.576 l -1.152,-0.768 -1.344,0.576 -1.152,0.576 0.576,0.576 0.768,0.96 v -1.536 l 1.728,0.192 -1.152,2.112 -0.768,3.264 0.768,0.768 z m -23.232,-9.216 -2.688,0.768 -0.576,2.688 z m 5.76,4.224 -1.344,-0.576 -0.768,-3.648 -0.96,2.496 -1.92,-0.768 2.304,2.88 1.536,0.576 z m -36.864,-0.192 4.224,-0.768 -1.536,-1.536 -1.92,0.384 z m -28.608,-1.92 -1.344,0.96 0.384,1.92 1.728,0.576 1.536,-1.344 -2.304,-1.152 z m 7.68,2.304 -1.92,-1.92 -0.96,1.152 0.384,1.344 1.536,0.384 z m 47.808,-0.768 -0.96,1.92 1.344,1.728 1.92,-0.192 1.152,-0.576 1.344,-1.152 -0.768,-1.92 -2.112,-0.96 0.96,1.152 0.192,1.344 z m -12.672,-0.576 -0.576,1.728 3.456,-0.768 -1.344,-1.344 z m -22.464,2.688 4.8,-0.192 -2.496,-1.344 z m -7.872,-0.384 -1.92,4.224 2.304,-0.192 0.96,-2.112 z m 76.416,0.768 -1.152,-0.192 1.152,2.112 0.576,-0.96 z m -18.432,-0.192 h -0.96 l 0.192,1.728 z m -44.352,1.92 1.728,-1.344 -0.96,-0.384 -0.96,0.768 z m -19.584,5.184 0.384,-0.96 1.344,0.192 -1.92,-2.496 -0.96,-3.072 -2.304,0.96 -0.192,0.96 -1.344,0.576 0.96,0.768 0.96,0.96 -0.576,0.96 3.456,0.192 z m 32.256,-2.688 1.536,-1.536 -0.576,-1.92 z m -15.744,-1.92 1.344,-0.192 0.768,-1.152 z m 8.64,0.576 0.768,-1.92 -0.96,0.768 z m 33.6,0.576 0.576,-2.304 -1.92,1.92 1.152,-1.728 -3.264,1.536 2.112,0.192 -1.152,1.152 z m 4.8,-0.384 -0.576,-1.536 -0.96,0.192 -0.192,0.96 z m -53.76,0.384 v 2.112 l 1.344,-0.576 0.96,1.728 2.496,0.192 -2.112,-4.416 -1.536,0.96 z m 40.704,0.576 -2.112,-1.152 0.768,1.152 z m -31.104,0.576 -0.192,-1.344 -2.304,0.384 0.192,1.152 1.344,0.576 z m 42.624,-0.96 -2.688,-0.192 0.576,1.344 h 1.344 z m 2.112,4.224 1.536,-1.92 -0.768,-2.304 -4.032,1.344 z m -20.736,-3.072 -0.96,0.96 0.192,1.344 1.344,0.384 0.96,-0.96 z m 26.496,1.536 0.96,-1.536 -2.304,1.344 -0.192,-0.96 -2.304,0.192 -0.96,2.112 1.344,1.92 2.304,-0.384 -0.192,-2.688 z m -8.448,1.152 -0.576,-1.536 -1.728,-0.384 z m -12.864,-1.536 -1.152,2.304 4.032,2.112 1.344,-2.304 0.384,1.728 v 1.344 h 2.304 l -0.384,-1.728 0.192,-2.304 -1.344,-0.192 -1.152,1.152 -1.536,-2.304 z m 24.384,3.456 1.344,1.152 2.496,-0.768 -1.152,-0.96 0.768,-1.344 -0.768,-1.536 v 1.536 l -0.96,-0.768 -0.96,0.192 1.92,0.576 v 1.344 l -2.688,-2.304 z m 5.76,-0.192 2.112,-1.728 -0.96,-1.152 -1.536,0.192 -0.576,1.536 z m -99.072,0.768 0.96,-1.152 -0.384,-1.536 -1.536,-0.384 -0.576,2.688 z m 60.48,0.384 3.264,-2.496 -1.92,-0.768 -1.536,1.152 h -1.152 l -0.96,1.728 z m -28.416,0.768 1.92,0.768 1.728,-1.152 -0.192,-0.96 1.92,0.768 -0.384,-1.92 -2.112,-0.192 -1.344,-0.576 z m 55.872,-0.576 h 1.536 l 2.112,0.384 -0.384,-1.152 h -1.536 l -0.576,0.384 z m -49.344,0.384 2.688,-0.384 -1.536,-0.576 z m 44.352,-0.384 2.112,2.112 -0.384,-1.728 z m 5.376,0.768 -1.92,-0.192 -0.96,1.536 z m -64.32,4.224 0.192,-2.112 -1.536,-1.344 z m 63.936,-1.344 3.456,1.728 v -1.92 l -2.112,-0.576 0.192,-1.344 z m 13.056,0 -0.576,-1.92 -1.92,-0.192 z m -29.76,3.84 2.496,-0.384 -0.192,2.304 h 1.344 l 0.768,-1.152 -0.576,-1.152 h -1.344 l -0.576,-4.608 -2.688,0.384 -0.96,2.496 z m 5.184,-4.224 2.112,4.416 0.96,-1.344 0.96,1.152 -1.152,2.496 2.304,-0.96 -0.384,-2.304 -0.384,-0.192 -0.96,-0.768 -0.96,-2.304 z m 28.992,1.152 -4.8,0.384 0.384,2.688 2.304,1.152 2.304,-1.536 z m -79.68,2.496 1.344,1.536 2.496,-2.112 -1.152,-1.536 -1.92,0.384 z m -10.944,-1.92 -0.96,1.344 h 3.072 l -0.576,-1.344 z m 23.424,4.416 1.728,-1.728 -4.608,-1.536 0.384,2.496 z m 24.384,0.384 1.152,-0.384 0.768,1.536 1.728,0.192 0.192,-3.072 h -0.96 l 1.344,-0.768 -2.112,-1.152 -2.112,1.152 z m 22.848,-2.496 2.496,1.728 0.192,-1.536 -1.152,-0.96 z m 12.48,2.688 0.192,-1.344 -0.192,-1.152 -0.96,-0.384 -0.768,1.344 -0.96,-0.384 v 1.152 l 0.576,2.688 0.384,1.344 2.112,-0.192 0.192,-2.112 1.536,-1.344 z m -66.816,-2.688 0.192,0.96 1.536,-0.384 z m 76.8,4.416 -1.728,-1.728 -2.688,1.344 -1.92,-3.264 -1.344,2.496 1.728,4.8 -0.768,1.152 1.152,-0.192 0.576,0.96 0.384,-4.032 1.728,1.728 2.304,-0.768 z m -39.936,-2.88 -1.152,0.576 v 1.344 z m 2.688,4.992 1.728,0.768 -0.96,-3.264 v -0.96 h -1.344 l -0.96,0.768 h -0.96 l -0.96,0.192 0.192,3.264 1.92,-0.192 1.152,-1.728 z m 5.76,2.88 1.152,-1.536 -0.768,-1.728 -3.072,1.344 -0.192,-4.224 -1.152,2.304 1.344,1.92 v 1.344 l -0.96,1.92 1.344,1.728 1.344,1.536 -0.192,-0.96 1.92,-2.688 -0.96,0.576 z m -48.768,-5.376 -0.576,1.536 1.152,1.344 1.152,-3.264 z m 54.912,3.84 1.728,-1.152 v -2.112 h -3.648 v 2.112 z m 17.664,5.568 3.264,-0.384 1.536,-0.768 1.536,2.112 0.576,-1.152 -0.768,-1.152 h -0.96 l 0.192,-2.304 -2.688,1.344 -0.576,-0.96 -2.88,1.536 0.96,-1.536 -0.768,-0.768 -1.728,0.768 h -1.152 l 0.768,-3.648 -2.112,-0.384 -1.344,1.536 0.768,2.112 1.92,0.384 -1.344,0.768 -1.92,0.384 2.88,1.152 3.072,-0.768 z m -13.824,-4.608 1.92,-2.304 -1.728,0.576 z m -2.496,1.344 1.728,-3.072 -1.728,0.96 z m -51.264,1.152 1.152,-0.192 -1.344,-1.92 -0.576,1.152 z m -3.648,3.264 1.92,-0.192 -2.112,-3.072 -0.768,1.728 z m 63.36,0.768 4.032,-2.304 -1.92,-1.152 -1.92,1.152 z m -79.104,-1.344 4.224,-0.192 -2.112,-1.152 z m 85.056,2.304 0.768,-1.536 h -3.456 l 0.96,1.536 z m -20.16,-0.768 1.536,1.536 -0.384,2.496 2.496,0.384 1.92,-2.112 0.192,-0.96 -1.152,-0.192 -0.384,-0.96 -2.496,0.192 z m 14.784,0 -1.92,0.768 1.344,3.456 1.92,-0.768 0.384,-2.112 z m -24.768,3.072 2.112,-0.576 0.576,-1.92 -4.032,0.96 z m 32.064,-0.576 0.96,0.768 0.96,-0.384 -0.768,-1.92 -0.96,0.576 z m -34.944,2.88 1.344,-0.384 0.192,-1.344 z m 40.896,0.192 1.536,-1.536 -3.648,1.152 z m -11.136,-1.152 -1.152,1.344 0.576,1.728 1.728,0.384 1.152,-1.344 z m 5.76,0.96 -1.728,-0.384 -1.152,1.344 z m 4.416,3.072 1.92,-0.96 -3.84,-2.496 v 2.112 l -0.96,-0.576 0.768,1.536 z m -22.656,-2.688 v 4.992 l 2.112,-1.152 v -2.496 z m 9.408,0.768 -2.112,3.072 1.92,-0.96 z m -14.976,2.496 0.576,-1.536 -3.072,0.576 0.96,1.152 z m 9.216,2.688 2.304,1.536 -1.92,-4.224 z m -72,0.96 0.96,-1.536 h -3.84 l 0.96,1.728 z m 49.536,1.536 1.344,0.576 -0.576,-3.072 -1.152,1.152 z m 5.376,0.768 0.576,-2.88 -1.728,-0.384 -1.152,1.344 0.576,1.728 z m 7.872,-1.92 0.96,-1.152 -2.112,-0.192 -0.96,2.304 0.576,1.344 z m 22.464,-1.152 -2.112,1.344 0.192,2.496 z m -19.968,0.768 -0.384,0.96 1.92,0.576 -0.384,-1.92 z m 22.08,5.76 -0.192,-0.96 1.152,-1.92 h -1.152 l -0.768,-1.152 v 1.152 h -2.688 l 1.344,2.112 0.768,2.496 z m -15.552,1.92 v -2.304 l -3.456,0.192 1.536,-0.96 v -1.92 l -3.264,2.112 1.152,0.768 0.192,2.304 1.92,1.152 z m -12.48,-4.224 -1.152,1.344 0.384,1.92 2.688,-2.88 z m -63.36,1.536 -0.576,0.96 0.384,0.96 1.728,-0.768 -0.384,-1.152 z m 64.896,0.768 3.264,0.576 -1.536,-1.344 z m 28.416,0.384 0.576,-0.96 -1.344,0.768 -1.728,1.152 z m -33.792,1.344 -1.536,2.112 4.224,-1.728 z m 27.456,0.576 -0.192,2.304 1.92,1.344 z m -85.248,1.92 -2.688,-1.536 0.96,1.536 z m 89.664,2.688 1.152,-1.152 -0.384,-1.728 -1.728,-0.384 -0.768,2.88 z m -89.088,1.536 1.152,-2.496 -4.224,-1.92 -1.152,2.496 1.536,2.112 z m 52.608,-2.688 -0.768,1.536 1.728,-0.192 v -0.96 z m 26.496,0.384 -0.768,1.92 2.88,-2.112 z m -19.392,3.072 1.728,0.576 -0.96,-3.648 -1.344,1.344 z m 10.368,-1.344 0.96,-0.192 -1.344,-1.344 z m 15.552,-1.344 v 2.112 l 1.728,1.152 1.92,-0.96 z m -31.68,3.648 0.96,-0.192 -1.536,-1.344 0.576,1.536 -1.152,-0.768 -2.112,3.072 1.728,1.152 1.92,-0.96 z m -55.104,2.496 -1.536,-0.96 2.112,-1.536 -2.112,-0.96 -2.496,1.152 -1.344,2.304 1.344,2.304 h 2.688 z m 94.848,0.192 0.576,-1.92 -1.344,-1.344 -2.112,1.92 -1.344,-1.152 2.496,2.88 z m -102.144,1.92 1.92,-1.92 -3.456,-3.072 -1.728,1.92 0.768,2.496 z m 67.008,-2.304 1.344,0.384 -0.768,-2.688 -0.96,0.96 z m 10.368,0.192 1.344,0.576 1.344,-0.768 -1.536,-2.304 -1.344,0.96 z m 13.824,-0.768 0.576,0.96 h 1.344 v -2.304 h -1.344 z m -24.768,2.112 0.768,-0.96 -1.728,-1.536 -0.96,0.96 0.576,1.344 z m -72.768,-0.768 1.536,-1.152 h -1.152 z m 98.688,2.688 1.92,-1.536 -0.96,-0.96 -1.152,0.192 -0.576,1.152 z m -3.648,3.072 2.112,-2.88 -1.728,-1.344 -1.92,0.768 -0.192,2.112 z m -12.864,-0.192 2.496,-3.072 -1.92,-0.192 -1.152,1.536 z m -70.656,-0.96 0.768,-1.536 h -1.728 v 0.96 z m 93.312,2.688 1.728,-3.072 -2.304,-1.152 -1.92,0.576 -1.536,0.576 3.264,2.304 h -1.536 l -1.152,1.728 0.96,1.92 z m -79.488,-1.536 -0.192,-0.96 -1.344,1.536 z m -17.856,3.072 0.576,-2.496 -3.072,3.264 z m 61.824,0.192 -1.344,-0.96 0.384,0.96 z m 16.512,0.192 2.112,1.536 -0.576,-1.344 z m 47.23196,-106.944 -3.264,-1.152 -2.496,-4.224 0.192,-5.376 0.384,-3.84 0.96,-6.72 0.96,-7.296 1.152,-3.264 5.568,-1.728 3.072,0.384 2.88,-0.384 16.896,0.768 5.952,-1.152 4.224,2.304 2.304,6.528 -1.536,4.224 0.768,12.288 v 3.84 l -1.344,4.224 -9.984,1.344 -3.456,-0.96 -4.032,0.384 -4.416,0.192 -8.448,0.768 z m -2.112,-30.144 -0.192,2.688 0.96,2.304 0.384,-2.688 3.264,-0.96 -0.192,-1.92 -2.304,-0.96 z m 20.544,3.264 -1.92,-1.92 -1.728,1.92 0.384,0.96 -0.768,1.152 -1.344,-1.152 0.384,1.152 h 0.96 l 0.192,0.576 -0.576,3.072 0.192,1.92 -1.536,1.92 1.344,-0.576 -0.576,1.152 1.152,2.112 0.96,-1.536 0.576,2.112 -1.152,1.92 1.728,0.96 2.112,3.072 -0.96,0.768 0.96,2.112 0.96,1.152 1.536,1.344 2.304,-0.192 1.536,-0.192 -1.152,-2.88 2.496,-0.768 1.536,-1.344 -1.728,-0.576 1.92,-0.96 -2.496,-1.536 1.344,-0.768 0.96,-0.576 1.344,0.192 1.152,0.384 0.768,-1.152 1.152,0.768 1.152,-0.768 -0.576,-2.112 -1.152,-1.728 -1.728,-0.192 -0.384,-2.304 0.96,-1.344 h 0.96 l 0.192,-3.264 -1.92,-0.192 -1.728,1.728 -0.384,-1.728 1.728,-0.768 v -1.344 l 2.304,-2.304 0.192,-1.92 -1.728,-1.152 -1.728,2.496 -1.344,0.384 -1.344,-0.192 1.728,2.688 -1.536,0.768 h -2.688 l -0.192,0.96 -1.536,-0.576 -1.92,0.768 -0.768,0.96 0.192,0.96 1.92,-0.384 2.688,2.688 -3.648,1.344 1.728,0.96 0.576,2.112 -2.496,-1.728 0.192,1.152 -2.304,-1.536 -1.344,1.344 v 0.768 l -0.576,-1.152 0.576,-2.688 0.576,-1.92 -0.192,-1.728 0.96,0.576 -1.152,-1.536 1.344,0.192 1.92,-1.536 h 1.344 l 2.304,-0.768 0.384,-1.152 1.152,-1.152 -0.576,-1.536 -1.536,1.728 z m -13.44,-2.688 -0.576,1.728 2.496,-2.112 -0.192,-0.192 -0.384,-0.96 h -0.96 z m 8.256,0.192 v 1.728 l 2.88,-1.92 -1.536,-0.768 z m -4.8,-0.192 -1.344,-0.192 -1.536,2.304 1.152,2.304 1.728,0.384 0.192,1.536 -0.768,1.152 h 1.152 l 2.496,-0.768 v -1.92 l 0.192,-2.112 1.536,-0.384 -0.96,-0.384 -0.96,-1.92 z m -4.608,0.96 -0.384,-0.96 -1.344,2.112 1.536,0.384 z m 29.952,1.344 -1.92,1.344 0.192,2.304 z m -9.6,3.456 -0.192,-0.768 1.152,0.768 z m -23.232,-0.384 -1.152,1.152 0.96,-0.192 z m -2.496,3.648 2.304,0.576 1.536,-1.536 -0.576,-2.304 -1.92,2.112 -1.344,-0.96 z m 21.504,0.192 0.96,-1.536 -1.536,-0.192 -0.96,1.152 -0.384,1.344 1.152,0.96 0.96,-1.152 1.536,-0.384 z m -12.864,2.88 0.192,-4.224 -1.92,0.96 -0.192,2.112 z m -3.456,-1.536 0.192,-1.728 -1.92,2.304 z m 6.912,2.688 -2.496,0.192 -0.192,1.344 -2.88,0.192 0.192,2.688 1.152,0.384 1.152,1.344 1.152,-0.192 v -1.152 l 1.344,-0.768 -0.192,-1.344 0.96,-0.384 0.192,1.344 1.536,0.768 1.344,-1.152 -2.112,-1.536 -0.384,-2.112 0.192,0.96 -0.192,-2.88 v -0.96 h -1.536 l -0.768,1.344 z m -10.944,1.344 -0.192,-1.536 -1.344,-0.576 z m 4.608,1.344 -0.768,-1.728 -1.728,-0.192 -1.344,1.536 z m 14.592,3.648 -2.112,-1.152 1.536,-1.152 -0.768,-2.304 2.304,0.576 1.152,-0.576 0.384,0.96 -1.344,0.384 2.112,0.192 0.384,0.768 0.96,1.344 -2.688,1.152 -0.768,-1.536 z m -15.168,-1.344 -1.152,-0.768 -1.344,0.576 z m -6.528,-0.192 0.576,1.92 0.576,-2.304 z m 17.664,2.88 0.96,-0.96 -0.576,-1.344 z m -4.8,-1.92 1.536,1.152 -0.576,2.304 1.536,1.536 2.304,-0.576 0.192,-0.96 1.344,0.576 -0.96,-1.728 -2.688,-0.768 -0.384,-1.152 z m 7.68,3.264 -0.192,-2.496 -0.96,-0.768 -0.384,0.96 -0.576,1.344 0.768,0.96 z m -9.216,4.608 1.728,-1.92 -0.768,-2.304 -2.304,-0.576 z m -6.912,-3.072 0.384,-1.344 -1.728,1.536 z m 32.064,0.192 -0.384,-0.96 -1.728,0.576 -1.344,-0.768 -0.384,0.96 -1.728,-0.96 1.536,2.304 -1.344,0.576 0.384,1.728 2.88,1.152 1.536,-2.688 1.344,0.384 -0.768,2.304 2.304,-2.112 -0.768,-1.536 -0.384,-0.192 z m -15.168,1.92 h 0.96 l -1.152,-1.728 -2.112,-0.192 -0.96,1.92 -0.192,0.96 -3.648,-2.304 v 2.688 l 2.112,1.536 2.496,-1.152 2.496,-0.768 z m -14.016,1.152 2.688,-0.768 -4.416,-1.152 z m 35.328,85.44 0.576,3.84 -2.304,7.488 -0.576,14.976 -6.72,1.92 -3.648,-0.192 -3.648,-0.384 -14.016,1.344 -5.952,-0.768 -4.032,-0.384 -3.264,-0.768 -1.92,-4.224 v -10.944 l -0.384,-3.264 0.96,-3.648 -0.384,-4.416 -0.192,-4.032 -0.768,-7.296 1.152,-7.488 -0.768,-7.68 0.384,-4.416 -0.384,-6.72 0.768,-10.368 -0.192,-16.128 1.152,-7.68 3.84,-0.96 3.84,0.192 h 3.456 l 7.488,0.576 4.224,-0.576 8.448,0.192 6.912,0.576 4.224,1.344 0.384,6.144 0.96,2.88 -0.576,4.8 0.192,7.872 -0.384,7.872 0.768,4.8 0.576,3.072 -1.728,6.528 0.576,3.648 -0.768,4.032 0.96,3.456 -0.384,7.488 1.344,4.224 z m -22.08,-66.624 0.768,1.536 0.192,-0.96 z m -3.84,1.344 -1.152,1.344 3.648,0.768 -0.576,-1.92 z m 7.872,2.496 -1.344,-1.92 0.192,1.344 z m 2.304,0 -1.344,0.192 1.92,1.92 0.384,-1.152 z m -9.6,8.64 -0.576,1.344 1.152,1.728 2.112,-0.192 1.344,0.192 -2.496,-1.92 -1.152,-1.728 v -1.152 z m -11.136,2.688 -0.96,0.96 0.192,1.536 z m 14.4,2.304 -1.536,0.96 v 1.728 l 1.536,0.768 z m -13.248,4.224 4.608,-2.112 -2.112,-1.536 -2.496,1.152 -1.152,1.536 -1.344,0.384 -0.96,-0.576 -0.768,-1.536 -0.768,-1.344 0.192,1.92 -1.152,0.768 -0.96,-0.192 -0.192,1.344 -0.384,1.92 1.728,0.384 1.536,-0.96 1.344,1.344 -0.576,1.728 1.344,1.344 1.92,-0.576 -2.688,-2.496 z m 2.112,2.304 1.92,-1.152 -0.192,-2.304 z m 19.968,-2.88 -0.192,1.152 0.96,0.576 0.192,-2.304 z m -6.912,1.152 v 1.344 l 0.96,2.304 1.536,1.152 2.112,-1.536 -0.384,-2.496 -2.304,-0.96 z m -5.568,2.304 -1.536,1.344 1.152,-0.192 z m -18.432,4.416 0.96,1.728 1.536,-3.264 0.96,-0.384 0.192,-1.344 -1.152,-0.96 -1.344,1.92 0.96,0.768 -1.152,-0.192 z m 10.176,-2.88 1.344,-0.96 h -0.96 z m 9.6,0.768 h 2.88 l -1.536,-0.96 z m -13.824,4.416 1.152,-1.344 -0.576,-1.536 -2.88,0.96 0.576,1.728 z m 4.032,-0.192 1.536,-2.112 -1.344,0.576 z m 3.84,-1.344 0.384,2.304 2.304,0.96 z m 22.848,0.192 -1.536,1.152 0.384,1.92 z m -33.6,4.608 0.384,1.344 1.344,0.192 z m 12.48,0.384 -0.96,1.152 2.304,-0.768 z m -13.44,4.992 1.152,-3.84 -1.728,1.536 z m 17.28,-2.112 0.384,1.152 1.152,0.192 z m -16.896,7.872 -0.192,-4.224 -1.152,2.304 z m 35.328,-2.688 0.96,0.96 -0.576,-1.92 z m -26.496,3.648 v -1.344 l -2.304,-0.384 v 1.344 l 0.96,0.96 z m 8.64,1.536 1.728,-0.96 -3.264,-1.92 -2.112,-0.384 1.92,2.496 z m -2.688,4.992 1.344,-0.192 -2.304,-0.96 z m -13.056,0.96 2.88,0.96 -1.152,-1.344 z m 29.184,1.536 3.264,-1.536 -2.112,-0.192 z m -12.672,1.536 0.192,-1.92 -1.152,-0.192 -0.576,0.96 0.384,1.152 z m 11.328,1.92 -1.536,-0.576 0.192,-1.344 -1.536,-1.536 -1.92,0.768 -0.576,1.92 2.496,0.576 -0.96,0.768 0.192,2.304 z m -0.96,3.84 -0.96,-0.192 2.496,-0.576 -2.688,-0.768 -2.688,2.688 0.768,2.304 3.84,-1.152 z m -28.608,3.648 1.728,-0.96 -1.92,-2.88 -1.536,1.152 v 1.92 z m 24.192,6.528 1.344,-1.152 -0.192,-1.728 -2.688,2.112 z m 9.792,6.528 0.768,-3.264 -1.728,0.576 -0.384,1.536 z m 133.82399,-40.704 0.768,6.144 0.768,12.672 -0.384,6.528 -0.384,8.064 -0.384,7.296 0.576,3.264 -0.192,9.024 0.192,3.456 -1.344,2.88 -0.576,4.032 -1.344,10.56 -1.152,4.032 -3.072,2.112 -2.496,2.112 -6.912,5.76 -3.264,1.152 -7.488,3.264 -6.912,3.648 -8.064,0.384 -3.648,0.768 -7.872,1.344 -4.416,-0.768 -11.712,-1.152 -9.6,-2.496 -3.648,-0.768 -5.568,-3.648 -8.064,-3.648 -2.688,-3.456 -3.072,-3.456 -2.304,-2.88 -3.456,-4.8 -0.96,-3.264 0.768,-7.488 2.688,-2.496 3.072,-0.576 7.872,0.384 7.872,0.192 3.456,-0.576 7.68,1.536 3.456,-0.192 4.032,-0.768 9.6,7.104 8.256,0.96 2.88,-11.52 1.344,-5.76 -0.384,-3.072 -0.192,-3.072 -2.688,0.768 -4.032,2.496 -3.84,1.92 -6.912,3.264 h -7.872 l -4.416,-1.152 -8.064,0.384 -6.336,-3.84 -13.44,-7.296 -1.92,-4.032 -3.072,-8.256 -0.96,-4.608 -3.072,-11.328 0.576,-3.456 v -4.416 l 1.536,-17.856 1.536,-4.608 1.344,-4.608 0.384,-2.496 2.304,-3.264 7.68,-7.68 7.296,-5.376 11.136,-3.648 3.264,-0.768 12.288,1.92 4.032,1.536 7.296,2.496 6.528,5.184 3.84,2.88 -0.192,-2.112 0.384,-7.68 3.264,-0.96 7.68,-0.576 h 7.68 l 10.176,-1.152 4.416,0.576 7.872,2.88 1.536,7.68 -0.384,2.496 0.384,7.872 0.576,3.072 -0.384,2.88 -0.384,9.408 z m -35.712,-39.936 -0.384,1.728 1.728,1.536 2.688,1.92 -0.96,0.96 0.576,2.496 2.496,0.576 1.728,-1.728 -2.88,-2.88 0.576,-1.344 -0.768,-1.92 -1.344,-4.032 -2.496,0.96 z m 22.272,-0.576 -1.536,2.496 1.536,0.96 1.536,-0.768 v -1.728 z m -43.008,0.576 -0.96,0.576 0.192,1.152 0.96,0.384 0.576,2.112 2.496,0.768 1.92,-1.92 -3.264,-3.264 -1.728,1.728 z m 34.368,0.768 -0.192,1.536 1.344,0.768 1.344,-0.576 -1.152,-2.304 z m -56.448,2.496 1.536,-0.384 -2.496,-2.496 -0.384,1.728 z m 10.752,-2.88 -1.92,0.192 0.96,0.576 z m 42.24,2.88 -1.536,-1.536 -1.152,4.032 2.112,-0.576 z m -11.904,-1.152 -0.576,2.688 1.92,1.728 2.496,-0.768 z m 19.2,0.768 -0.768,0.96 1.92,-0.768 z m 0,1.152 -1.536,1.536 0.192,1.728 0.768,-0.96 v 0 l 0.96,-0.96 -0.96,0.96 0.384,1.728 1.152,-1.344 -0.576,-1.728 z m 2.688,0.96 h -0.96 l 1.152,1.536 z m 10.368,0.192 -1.728,0.384 1.152,1.152 z m -17.472,0.192 -1.92,1.92 0.768,2.496 3.84,-3.84 z m -2.88,4.416 -0.576,-1.536 0.576,-1.152 -0.768,-1.344 -1.536,2.112 -1.152,1.344 2.496,1.92 z m -62.016,-2.688 -3.072,2.112 2.112,-0.192 z m 81.984,2.496 1.728,0.384 -2.496,-2.304 z m -43.2,-1.344 -2.112,-0.576 0.96,0.768 z m 39.936,-0.384 -0.384,1.152 1.92,1.728 0.384,-1.344 -0.96,-0.96 -1.152,0.384 1.536,-1.152 z m -9.216,1.728 2.304,1.92 -0.768,-1.536 z m -8.064,4.416 0.576,-1.92 -2.304,-0.576 -1.152,-1.344 -2.688,0.576 0.576,2.496 0.384,2.112 1.728,0.384 1.344,0.768 1.344,0.576 v -1.728 z m -37.632,-3.264 1.728,0.576 -0.192,-0.96 z m 30.144,1.728 -0.192,-0.384 -0.96,-1.344 -2.496,0.192 0.384,4.224 2.88,-0.576 z m 30.144,2.496 0.384,-2.304 -1.728,-1.344 -0.768,4.416 z m -9.408,-0.96 h -0.96 l 0.576,-0.96 -0.96,-1.344 -2.112,1.536 0.768,1.344 1.536,0.96 z m -80.64,-1.344 -4.416,0.576 2.304,0.96 z m 28.224,0.384 -0.384,1.536 1.536,-0.576 -0.192,-0.96 z m -26.304,3.648 -0.768,-3.264 -1.344,1.152 0.384,1.536 z m 25.344,-1.728 -0.96,-1.152 -0.768,2.688 1.344,-0.384 z m 57.216,-1.152 -0.96,1.344 3.456,0.192 -0.768,-1.536 z m -54.72,1.728 -0.192,-0.96 -0.768,1.536 z m 51.264,0.768 2.304,-0.384 -0.768,-0.96 -1.152,0.192 z m -11.136,-0.768 -0.96,1.92 3.072,1.728 1.152,-1.92 -1.152,-1.728 z m -49.344,0.192 -2.304,1.344 h 1.536 z m 9.6,4.224 -0.192,-3.648 -0.96,1.728 z m -33.6,-3.456 -1.728,1.536 4.416,1.344 -0.576,-2.112 z m 32.64,2.496 -1.536,-1.92 -2.496,0.576 -0.576,2.496 1.728,1.728 2.304,-1.152 z m -21.12,-0.768 -0.96,-0.576 -1.536,0.768 0.768,1.344 0.192,1.536 1.536,0.96 1.728,-3.072 -0.192,-0.96 z m 12.48,0.384 2.304,0.384 -0.384,-0.96 -1.152,-0.384 z m 67.392,1.536 -0.96,-2.112 -2.304,-0.384 1.728,4.416 0.96,-0.576 z m -3.264,0.96 -1.152,-2.112 -2.304,0.192 0.576,-1.152 -1.152,0.768 -2.304,1.344 1.728,0.576 0.96,2.112 2.688,-0.384 z m -19.2,-0.576 -0.576,-1.344 -1.536,-0.192 -0.384,2.688 h 1.536 z m -60.864,4.224 1.152,-1.152 -0.576,-1.728 z m 49.728,-2.88 -0.768,2.112 0.96,-0.768 z m 23.232,5.76 1.92,0.96 1.728,-1.152 v -2.112 l -1.92,-1.344 0.192,-2.112 -1.536,2.112 0.768,1.344 -0.96,0.192 v 0.384 l -1.344,-0.192 1.344,-0.192 0.192,-0.768 -0.96,-0.768 -0.96,0.384 -1.344,0.576 0.576,1.92 -2.304,0.384 1.536,0.576 0.96,-0.768 0.96,-0.384 z m 12.288,-3.264 -0.96,-0.768 -1.152,0.384 -0.576,1.728 0.96,0.768 0.96,0.384 z m -19.392,19.968 h 2.112 l 0.576,-2.496 4.032,0.192 -0.96,-1.728 -1.344,-0.768 2.112,0.768 1.536,-1.728 0.576,1.344 2.112,0.384 1.152,-1.92 1.152,-0.96 0.192,-1.728 -1.344,-1.152 -1.92,-2.112 3.648,2.304 v -2.112 l -1.728,-1.152 -1.92,0.768 -0.96,-0.96 -1.536,1.92 0.192,1.536 -1.152,0.96 0.96,0.96 -2.304,-0.96 -1.152,-0.96 -1.536,-1.344 -0.192,-2.688 -1.536,-1.536 0.192,-1.536 -1.92,-1.728 -2.112,2.112 0.384,-0.96 -2.112,-1.728 -2.112,-1.344 -2.496,1.152 -0.192,2.688 2.112,-0.96 0.96,0.384 1.344,2.688 1.344,-0.384 1.344,1.152 0.192,1.152 3.264,1.92 -1.728,0.768 -1.152,0.192 1.728,0.576 0.192,2.304 -1.92,-0.192 -1.536,1.92 0.384,-0.192 1.92,0.384 1.344,-1.344 0.96,-0.576 -0.768,1.152 3.072,-0.576 1.728,-0.384 -0.96,0.96 -1.152,-0.192 0.576,1.728 -0.96,1.536 -0.768,-1.152 z m -72.576,-16.896 0.576,-0.96 -0.576,-1.152 -1.152,2.112 z m 36.864,-1.728 -1.344,1.92 h 1.152 l 0.768,-0.96 z m 55.872,4.032 v -2.304 l -2.496,1.344 -1.536,-0.768 -1.344,-0.96 -0.768,1.344 0.384,1.344 -0.192,2.688 2.304,-1.152 0.192,-1.344 1.536,0.768 z m -43.584,18.24 0.192,-10.752 -4.416,-8.64 -11.712,2.88 -1.728,3.648 -1.536,11.328 1.728,7.488 8.256,3.456 5.184,-0.576 z m 6.528,-18.624 -0.384,2.112 1.344,0.96 -0.96,0.384 -0.192,1.92 1.92,0.576 0.192,1.344 -1.152,-0.768 1.152,2.496 0.96,0.192 2.304,0.384 1.152,-1.536 0.768,1.344 0.768,0.384 -1.344,0.384 1.344,0.96 1.92,1.536 0.192,-1.152 0.576,0.768 0.192,1.728 2.88,0.384 1.92,-0.192 -1.344,-0.96 -0.768,-1.536 -1.344,-1.152 1.344,-0.576 -2.304,-1.152 0.768,1.344 -2.304,-3.072 -0.384,-0.96 h -1.536 l 0.768,-1.92 -1.344,-0.192 h -3.648 l 1.536,-1.728 -0.768,-2.304 -2.112,-0.576 z m 28.032,0.384 -0.768,1.728 0.96,-0.768 z m -94.656,1.344 1.92,3.072 1.728,-1.152 v -2.112 l -1.92,-0.96 z m 103.488,2.304 1.536,-0.96 -3.456,-1.728 0.192,1.92 z m -3.648,1.152 2.112,-1.728 -1.152,-0.384 -1.152,0.768 z m -19.392,-1.152 -0.192,-0.768 -1.536,1.728 z m -63.36,-0.768 -0.96,1.536 0.768,1.536 z m 48.768,1.152 -2.304,-0.768 0.192,1.152 1.152,0.384 z m 37.632,13.632 2.112,-1.728 -2.112,-0.384 0.576,-1.728 -2.112,-0.576 -1.92,1.536 v -2.304 l 0.576,-1.728 -2.496,2.304 -1.92,0.384 0.96,-0.576 2.496,-2.88 -0.96,-1.344 1.344,-1.152 1.728,0.576 -0.576,0.96 -1.536,-1.152 0.96,2.112 1.728,0.192 2.496,1.536 0.192,-1.92 -1.344,-0.96 1.152,-0.576 -2.112,-0.576 -1.152,0.192 0.96,-0.768 -1.728,-2.112 -0.96,1.728 -0.768,-1.92 -3.072,3.84 1.344,0.192 -0.384,1.344 -2.112,1.152 0.768,1.344 0.576,1.152 0.96,0.96 h -0.96 l 1.344,2.304 h 2.496 l 0.576,1.92 z m -37.44,-11.52 -0.192,1.92 0.96,-0.384 z m 0.768,1.728 -0.768,1.152 1.728,1.152 z m -44.736,6.528 2.496,-0.96 -4.032,-3.456 -0.576,2.496 -1.152,1.344 1.92,-0.576 z m -3.456,-3.84 -3.072,-0.192 0.768,1.344 1.536,0.192 z m 52.032,4.416 2.496,-3.264 -2.304,-1.152 -1.728,0.576 -0.192,2.304 z m -8.064,-3.456 -0.768,1.92 1.152,1.728 3.072,-1.92 -1.344,-1.728 z m -54.528,1.344 v 1.536 l 1.344,0.768 1.344,-2.112 -1.344,-0.96 z m 83.328,0.768 -2.304,0.768 v -1.152 l -1.344,-0.768 -1.344,2.112 0.96,0.576 0.576,2.112 2.304,0.576 1.728,-1.728 -0.192,-1.152 z m -75.456,2.112 0.96,0.768 0.96,1.344 0.768,-1.536 h -1.344 l -1.344,-2.112 z m 54.336,0 0.768,0.384 0.576,0.96 -0.192,-2.688 z m 26.112,2.112 0.384,-1.536 -1.152,-1.152 -1.344,0.384 z m -95.04,-0.384 0.96,-1.728 h -0.96 z m 12.864,-1.344 -0.384,1.152 1.536,-0.384 z m 64.896,2.304 -4.032,-2.112 v 2.304 l 0.768,0.768 3.264,1.152 z m 13.44,0.192 -2.112,-0.384 1.92,1.536 0.768,0.96 2.112,-0.192 0.768,-1.92 -1.152,-1.728 z m -96.96,1.536 3.072,-0.384 -0.96,-1.344 -1.536,0.192 z m 21.312,0.96 0.576,1.92 1.728,0.576 v 0.96 l 1.536,0.96 1.92,-2.688 -0.768,-0.96 -3.264,-3.264 -1.92,1.92 -0.96,-0.192 z m 7.104,-0.768 -0.384,-1.344 -1.536,-0.384 -0.576,2.688 1.536,0.192 z m 64.32,6.528 4.992,2.112 -0.384,-2.496 -2.496,-1.152 -0.96,0.768 0.576,-1.728 0.384,-1.728 1.344,0.384 0.96,-1.152 -1.92,-1.536 -1.344,2.112 0.576,1.92 -3.072,-1.728 -0.768,0.96 v -1.536 l -0.96,-1.728 -2.112,-1.536 -0.96,1.152 0.576,1.344 -1.536,0.96 1.728,0.96 -0.576,1.152 1.92,1.152 1.536,-0.768 1.152,1.92 z m -14.208,-5.568 0.768,-0.96 -0.384,-1.344 z m -44.928,0 v -1.152 l -0.96,-0.576 -0.96,1.728 0.96,0.576 z m 52.8,-0.576 -0.96,-1.152 -0.192,1.344 z m 12.672,1.152 2.496,-1.344 h -1.536 z m 7.296,0.96 1.152,0.192 0.576,-0.96 -2.112,-1.152 z m -21.12,-0.96 -4.8,-0.768 0.768,2.304 2.496,0.384 z m -75.84,0.384 -0.192,1.152 1.344,-1.536 z m 16.704,3.648 2.112,1.728 2.496,-1.152 0.384,-2.496 -2.112,-1.728 z m -9.408,0.768 3.456,-0.576 -0.192,-2.112 -1.92,-0.768 -1.728,1.344 z m 81.408,-0.768 0.96,-0.384 0.192,-0.96 z m -88.704,3.456 0.96,-0.384 -0.384,-0.96 h -0.96 l -0.576,-2.88 -1.728,1.728 0.384,2.496 z m 75.84,3.264 2.688,-0.768 -4.032,-1.152 1.728,-0.192 1.152,-2.88 -2.304,-0.576 0.384,1.152 0.96,0.384 h -3.072 v -1.152 l -1.92,1.152 1.152,0.576 2.112,2.304 -1.728,0.192 0.576,0.96 1.536,-0.96 z m 14.208,-3.264 -0.96,-1.92 -0.576,0.96 0.384,0.96 z m -23.04,-1.92 -2.112,1.344 1.344,-0.192 z m 12.096,3.648 -0.96,1.344 3.84,2.304 1.92,-1.728 1.344,-4.416 -2.496,-0.768 -1.728,1.536 -1.92,-0.384 -1.728,1.92 z m 7.296,0.768 0.96,-0.192 0.768,1.152 0.96,-0.96 1.344,0.576 1.344,-1.152 1.152,0.96 1.344,-1.344 -0.576,-1.728 -1.344,-0.576 -2.496,-0.576 0.96,2.304 -0.96,0.768 -0.768,-0.96 z m 13.824,0.192 0.576,-1.92 -1.344,-1.344 -2.496,2.304 1.344,1.536 z m -94.848,-2.304 -1.92,1.728 0.576,2.304 3.072,0.384 0.192,-0.96 0.96,-0.192 -0.576,-2.304 z m 10.176,1.536 0.96,0.192 0.576,-1.536 -1.728,0.384 z m -1.92,0.384 -1.344,0.576 0.384,0.96 h 0.96 z m 36.672,0.576 0.576,1.152 h 1.152 l 0.576,-0.96 z m 41.472,4.608 1.152,-0.96 -0.192,-1.536 -0.96,-0.384 0.192,-0.768 -1.92,-0.768 -1.92,1.344 h 3.264 l -1.344,0.96 z m 5.376,-4.416 -1.536,0.576 -0.192,1.728 1.344,1.152 z m -25.344,5.184 3.264,1.344 -0.192,-1.536 1.152,0.768 3.072,-0.192 -0.768,-1.344 -1.728,0.576 -1.92,-4.032 -1.344,1.92 0.768,1.728 -0.96,-0.384 z m -23.04,0.576 4.608,-0.192 -0.192,-2.688 -2.496,-1.344 -0.96,0.576 -2.304,-1.152 v 2.304 l -1.152,-0.192 -1.152,1.152 2.304,0.576 v 1.536 z m -39.936,-2.688 1.344,1.152 -0.96,-2.688 z m 69.504,5.184 2.688,0.384 1.728,-2.112 -0.576,-1.344 1.536,0.576 1.344,-0.96 -0.384,-1.728 -2.88,0.384 v 0.576 z m -62.4,-3.072 -0.768,-2.112 -0.768,3.84 z m 78.912,-1.728 -1.92,0.768 1.152,0.192 z m -36.096,4.8 2.688,-0.192 -0.576,-4.608 -2.688,0.192 -0.96,2.496 z m 36.288,-2.496 3.456,-0.768 -1.152,-1.152 -1.728,0.192 z m -55.296,-1.152 2.304,1.152 v -1.344 l -1.344,-0.576 z m 47.808,0 1.344,2.112 2.496,-0.192 z m -2.496,0.576 0.768,1.344 h 1.536 z m -34.176,3.072 0.96,-0.576 -0.96,-1.344 z m -36.096,2.496 2.304,-0.576 -3.648,-3.84 -0.768,2.688 0.384,1.536 -1.536,-0.384 1.344,1.92 -0.192,2.496 2.112,-0.768 z m 76.8,-0.192 v -3.456 h -1.92 l -0.96,1.728 0.96,1.536 z m -49.92,4.416 0.768,-2.304 -1.152,-1.152 -0.576,-1.92 -1.152,0.384 0.576,1.344 -1.344,1.344 -1.92,-0.384 0.384,-1.152 -0.96,-1.344 0.192,-0.96 -1.728,-1.344 -1.92,0.96 0.96,2.112 -1.728,2.112 -0.768,1.728 1.92,-1.152 0.96,0.96 1.344,-0.384 -0.384,1.536 1.344,-0.384 1.536,1.728 1.92,-1.152 z m 51.648,-2.496 4.032,-0.576 -0.384,-2.304 -2.304,-0.768 -1.728,1.536 z m -9.024,-1.152 v -1.728 l -2.88,-0.192 -0.192,1.728 1.344,0.96 z m -84.672,2.496 0.192,-3.456 -0.96,1.728 z m 89.28,-1.536 -0.576,-1.92 -0.576,2.304 z m -10.944,2.496 1.152,-2.88 -1.728,-0.576 -1.344,1.152 0.384,1.728 z m -6.336,-1.92 -2.496,-0.384 2.112,4.608 1.536,-2.112 z m -9.216,0.96 -0.96,3.84 1.92,-0.576 0.384,-1.92 z m -41.472,4.8 1.92,-1.92 -0.576,-2.688 -4.032,3.84 z m 36.672,-2.88 1.728,-0.96 h -1.152 z m 17.088,-0.96 -0.768,0.96 0.576,0.96 1.344,-1.92 z m 15.744,5.184 v -4.608 h -2.688 l -1.344,2.304 1.344,2.304 z m -38.592,-1.92 1.152,-0.96 -0.384,-1.536 z m -45.888,0.576 3.264,-2.88 -2.304,0.576 z m 23.424,0.384 1.152,-0.384 -1.92,-1.92 -0.192,1.344 -1.728,1.728 z m 42.816,1.536 0.96,-1.344 -0.96,-2.112 -0.192,3.264 -0.96,0.192 z m -7.872,-0.96 1.92,1.344 2.112,-1.152 v -2.304 z m -43.2,3.072 1.536,-0.576 -2.304,-2.112 -0.384,1.536 z m 74.88,-1.536 -0.384,-0.96 h -0.96 l -0.192,1.536 z m -31.488,6.528 v -4.032 h -2.304 l -1.152,1.92 1.152,2.112 z m 13.056,0.96 0.576,-1.92 -1.344,-1.344 -1.92,0.384 -0.576,1.728 z m -9.408,7.488 3.072,-1.152 -0.768,-1.92 -1.92,-0.192 -1.152,1.344 z m 215.04003,-42.432 0.576,7.488 0.96,4.032 -0.192,3.648 -0.192,3.84 -0.768,7.872 -1.536,7.488 -0.192,3.264 -7.296,2.112 -11.52,-0.576 -6.72,0.96 -6.144,-0.576 -4.416,0.384 -7.68,-6.72 2.112,-9.216 -0.768,-4.992 -0.576,-8.448 -0.576,-2.496 1.728,-10.56 -0.768,-8.448 0.192,-7.872 -2.304,-7.68 -5.376,-1.344 -4.608,0.384 -2.304,4.032 -0.768,8.64 -0.576,3.84 0.768,7.488 0.768,8.064 -1.344,3.456 0.768,3.456 -0.192,7.296 1.536,4.032 -1.536,10.752 -5.76,4.608 -5.952,1.92 -4.8,0.384 h -9.024 l -2.88,-0.96 -6.72,-0.384 -3.264,0.192 -3.456,-1.152 -1.152,-8.064 -1.152,-3.648 -0.96,-6.336 -0.768,-4.608 2.304,-10.944 -1.344,-7.872 0.768,-8.448 0.768,-6.912 -4.608,-8.064 -3.83996,-2.688 -6.912,5.76 -0.576,9.792 -0.192,3.648 0.96,5.952 -0.192,9.024 -1.152,6.144 -0.768,4.032 0.768,4.224 v 4.608 l 0.384,4.8 v 6.144 l -4.992,4.032 -4.032,-0.96 -7.488,1.344 -11.712,1.344 -3.648,0.96 -8.256,-1.92 -2.88,-0.384 -1.92,-4.224 -0.384,-8.832 -0.576,-2.88 0.96,-6.912 0.192,-4.224 0.384,-4.608 -0.384,-2.88 0.384,-2.688 -0.96,-7.872 0.768,-4.608 -0.384,-3.456 0.768,-3.648 -1.536,-7.488 0.384,-4.224 -0.384,-6.912 0.768,-4.416 v -7.488 l 0.384,-3.264 1.152,-6.912 3.264,-0.384 4.224,-0.768 10.176,-1.344 3.648,0.96 3.84,-0.384 h 7.68 l 2.496,-0.384 5.184,6.144 0.384,2.496 0.192,3.072 2.496,-3.456 6.144,-5.184 8.63996,-3.072 4.416,-2.112 4.608,-0.192 5.376,-0.384 7.872,3.264 2.688,0.96 6.528,4.032 3.456,1.92 2.688,2.88 1.536,2.688 2.112,-4.416 2.688,-2.112 8.256,-2.304 3.84,-1.92 4.032,-1.344 4.224,-1.92 7.872,-0.384 12.48,1.728 2.496,3.264 3.456,3.456 2.88,2.688 2.112,2.688 2.304,2.496 3.648,7.104 1.152,7.488 2.112,4.032 0.576,7.68 -3.456,7.104 0.192,4.032 z m -35.328,-57.984 -0.576,1.344 h 3.264 l 0.384,0.576 1.344,0.384 0.96,-0.96 3.456,-2.496 -2.496,-1.152 -1.92,-0.96 -0.384,2.112 -0.96,0.384 -1.728,0.384 z m -5.568,0.576 4.416,-0.768 -1.344,-1.728 -2.304,0.384 z m -94.27196,-0.96 -0.384,1.536 1.152,1.92 3.264,-2.304 -1.152,-1.92 z m 34.17596,4.8 -1.728,-1.536 0.384,1.152 z m -1.728,2.688 -0.768,2.496 1.92,1.92 2.112,-0.384 -0.384,1.728 1.728,1.344 -1.728,-0.768 -2.112,1.344 2.112,0.576 -1.152,0.192 -0.768,1.728 3.84,-0.576 -1.152,-2.112 1.536,-0.192 2.496,-3.648 1.344,-0.576 0.192,-2.112 -2.496,-1.728 1.152,-1.152 -0.384,-1.536 -1.536,-0.384 -0.384,1.536 -1.344,0.384 1.152,0.768 -2.112,0.768 0.576,1.536 -1.728,-0.768 z m 49.344,-3.456 -1.728,4.416 2.688,0.96 1.92,-1.728 -0.384,-2.688 z m -24.192,0.192 -1.536,1.536 3.648,-0.96 z m -30.144,0.384 0.768,1.344 h 1.92 l -0.96,-0.576 v -0.96 z m 17.28,-0.192 -2.304,1.152 3.84,2.496 0.192,3.264 0.96,-2.112 -0.768,-1.152 0.192,-2.112 z m 18.24,3.648 -1.344,-2.496 -4.032,2.496 1.344,2.304 h 2.688 z m -36.864,5.376 0.192,0.96 3.072,-3.264 1.728,-0.192 -1.536,-2.88 -0.576,-1.92 -0.96,0.768 -2.87996,-0.96 -0.768,2.112 1.53596,1.728 2.496,0.576 -0.96,-0.192 -2.11196,2.112 -1.152,0.192 -0.384,1.152 z m 82.944,-3.84 1.344,-1.728 -3.264,-0.576 -3.648,-1.344 -0.96,2.112 1.536,1.728 2.688,-0.384 z m -104.63996,-1.536 -0.768,-1.152 -2.304,1.344 0.768,1.344 1.536,-0.192 z m 6.336,-1.152 -0.192,2.688 1.152,-0.768 0.192,-1.344 z m 31.87196,2.112 -0.192,2.112 -1.152,0.384 -0.384,1.344 2.304,-0.96 2.112,-1.92 -1.152,-1.152 z m 47.808,0.576 h 2.688 l -1.344,-0.768 z m 29.184,-0.192 -0.384,1.152 2.496,-0.576 -0.768,-0.96 z m -68.736,1.152 -1.92,-1.344 0.576,1.152 z m 72.192,-1.152 -1.152,0.768 0.192,1.536 z m -65.664,0.576 -1.536,0.384 0.192,0.96 1.728,-0.384 z m -50.11196,0.384 -0.96,0.192 1.344,1.344 z m 47.42396,0.384 -3.84,0.576 1.152,1.536 1.92,-0.384 z m 23.616,3.648 2.112,-0.768 -2.304,-0.384 v -0.96 l -2.304,-1.344 1.344,2.88 -0.96,-0.768 -2.112,0.384 0.96,3.648 1.344,0.384 -1.344,1.536 3.072,-1.152 0.96,0.576 v -2.688 z m -31.872,0.192 1.728,-0.768 -1.152,-2.304 -2.496,-0.192 -1.344,2.112 0.96,2.304 2.112,-0.192 z m -25.91996,-1.152 2.112,0.192 1.344,-1.728 -4.224,-0.384 z m 38.97596,-0.768 3.072,-0.384 -1.728,-0.576 z m -26.496,0.96 -0.96,1.152 0.384,1.152 z m 73.152,0.768 1.536,1.92 2.496,-0.192 0.96,-2.304 z m -59.136,2.496 1.536,2.112 2.688,-0.384 -0.576,-4.608 -2.688,0.384 z m 24,-2.88 -2.688,3.84 2.304,1.536 2.304,-1.152 0.384,-2.688 z m -52.03196,4.8 0.96,-2.112 -1.152,-1.92 -2.496,0.768 -0.768,-1.152 h -1.536 l -0.768,1.344 0.768,1.344 1.92,-1.152 -1.536,1.536 1.728,1.92 z m -18.432,-1.728 -1.344,1.152 2.112,2.112 1.344,-1.344 2.304,-0.192 1.152,-2.304 -1.536,-1.92 -1.92,4.416 -0.384,-1.536 z m 24,-2.496 -1.728,1.152 3.64796,1.92 v -2.112 z m 4.03196,2.496 1.344,0.576 -0.192,-2.688 -1.152,0.768 z m 25.92,-0.192 0.96,-1.152 -3.072,-0.576 0.576,1.536 z m -15.552,0 0.768,-1.152 -2.688,-0.384 0.576,1.344 z m 83.52,2.688 2.304,-3.264 -2.112,0.96 z m -110.20796,-0.192 0.384,1.344 0.768,-2.496 z m 60.47996,1.344 0.96,-2.304 -3.264,2.688 z m 38.208,2.112 1.536,-1.728 -2.88,-2.688 -1.536,1.536 1.344,2.688 z m -101.95196,-3.84 -1.728,0.384 -0.576,1.536 2.688,-0.576 -1.152,1.728 1.152,2.304 2.688,0.384 1.536,-2.112 z m 11.904,4.608 0.96,-2.112 -1.344,-1.92 z m 3.072,-0.576 1.728,1.344 2.49596,-3.072 -1.92,-1.344 -2.11196,0.768 z m 83.51996,0 2.112,0.576 -2.688,-2.88 z m -75.456,-1.92 h -1.152 l 1.728,1.152 z m 53.184,5.568 0.768,-3.264 -0.768,-2.112 -3.84,1.152 0.768,2.304 0.576,0.384 -0.384,1.152 2.496,-1.728 z m -5.76,-2.688 v -2.112 h -1.152 l -0.576,1.152 0.576,0.96 z m -8.448,0 2.304,-1.152 -0.96,-0.768 -1.344,0.576 z m 17.088,0.192 0.96,0.576 -0.192,-2.304 -0.96,0.576 z m -81.40796,-1.728 -1.536,1.152 0.384,1.92 z m 96.57596,0.96 v 1.536 l 2.688,-0.192 -0.192,-1.536 -1.344,-0.576 z m -107.32796,-0.576 -0.384,2.496 1.92,1.536 2.304,-0.768 z m 61.05596,1.152 -1.152,-0.96 0.768,2.496 z m 9.216,2.688 -1.536,1.344 0.384,2.112 1.92,-1.536 -0.576,1.344 0.384,1.536 1.536,0.384 0.96,-1.344 -1.92,-2.304 0.384,-1.344 0.576,-1.92 2.112,-0.192 -1.92,-0.576 -1.344,-0.192 -1.152,0.768 z m 42.816,-0.576 -2.112,-0.384 -1.344,1.728 0.768,1.92 z m 0.384,4.224 2.688,-2.496 -1.536,-1.536 -1.92,0.384 -0.576,2.112 z m -94.27196,1.536 1.152,-4.416 -2.112,0.576 -0.576,2.304 z m -2.88,-0.96 0.768,-2.496 -1.344,0.384 -0.192,1.152 z m 21.50396,-1.344 2.688,-0.768 -1.536,-0.384 z m -29.18396,0 0.576,1.344 h 1.344 l 0.768,-0.96 -1.92,-1.344 z m 36.86396,3.648 3.456,-1.92 -0.96,-2.112 h -2.304 l -1.152,1.728 -1.152,-1.344 -1.728,0.576 0.768,2.88 1.536,-0.384 0.576,-1.536 z m -32.44796,-0.768 2.304,-2.688 -1.92,0.576 z m 98.11196,0.96 0.576,-1.536 -0.96,-1.344 -0.96,2.112 -0.384,0.96 z m -53.376,-0.576 -0.384,0.96 0.768,0.96 2.496,-1.536 -0.576,-1.536 -1.728,-0.384 z m 11.328,-1.344 -0.576,1.536 0.96,1.152 2.112,-1.728 -1.152,-1.152 z m -32.064,3.648 2.688,-3.264 -2.112,-0.384 -1.152,1.728 z m 87.36,0.192 3.648,-1.536 -0.96,-2.112 -2.304,-0.192 -1.344,1.728 z m -59.136,-2.304 -2.112,-0.192 1.92,0.96 -0.192,1.152 0.96,-0.384 z m -49.72796,4.8 -0.192,-1.92 0.96,-0.576 0.192,-1.152 -1.536,-0.384 -0.96,0.384 h 0.96 v 1.344 l -3.84,0.96 0.384,2.304 2.304,0.576 z m 51.64796,-0.384 0.768,0.384 1.344,1.152 2.112,-0.384 -1.728,0.384 1.728,-0.192 1.152,1.152 -0.384,4.992 -2.112,1.536 -0.96,-1.92 -0.768,1.344 -1.536,-0.384 0.768,1.92 -1.728,-1.152 -0.768,1.344 0.768,1.344 1.92,-0.384 0.96,0.576 -1.344,0.384 0.384,0.96 -1.152,0.768 0.384,2.688 1.152,-1.92 2.496,0.384 1.536,-1.92 -1.536,-3.264 1.536,1.536 2.688,-0.768 0.576,-2.496 -0.768,-1.152 1.536,-1.92 -1.152,-2.304 -1.344,-0.192 2.496,-2.688 -1.536,-2.112 -1.92,-0.96 -0.576,0.96 -1.536,-0.384 -1.344,1.344 -0.192,0.96 z m -17.472,-3.072 -0.96,2.88 1.344,-1.152 z m -3.84,3.264 -0.576,-2.112 -2.112,-0.576 z m 10.368,2.496 0.768,1.728 1.536,1.536 2.688,-2.496 -1.536,-1.536 -0.96,0.192 0.192,-1.536 0.192,-2.496 -4.416,2.112 1.728,1.344 z m -49.34396,-0.192 1.728,1.92 2.688,-0.384 -3.456,-4.224 z m 59.51996,0.384 1.344,-1.92 -1.152,-0.768 -1.152,0.576 v 1.344 z m -18.048,2.688 h 2.688 l 1.152,-2.496 -1.344,-2.304 -4.032,2.496 z m 29.376,-1.728 0.576,-1.344 -2.112,1.536 z m -24.96,1.344 2.112,-1.728 -1.536,0.192 z m 53.952,2.688 0.192,-4.224 -1.344,2.112 z m -38.592,-0.768 -0.768,-3.264 -0.576,1.92 z m -54.91196,1.344 -2.496,-0.192 0.96,2.112 2.688,-0.192 0.192,-1.728 -1.92,-1.344 -0.768,-2.88 -1.344,1.536 0.576,1.728 0.768,0.768 z m 51.83996,-3.648 -2.88,3.648 2.496,-0.96 z m -19.392,4.224 2.496,-0.768 -2.496,-1.152 -1.728,-0.384 0.96,-1.92 -2.304,0.192 -0.384,2.88 -0.192,1.536 1.728,-0.768 z m -38.97596,-0.384 h 1.728 l 0.192,-2.88 -1.728,-0.192 -0.96,1.536 z m 2.304,-0.384 1.344,0.576 -1.536,-2.112 z m -8.256,0.768 2.112,3.264 1.728,-0.384 0.576,-1.92 -1.344,-1.344 -1.728,1.152 z m -16.512,-0.192 -1.728,2.112 5.376,0.96 -0.96,-2.496 z m 93.50396,2.304 0.192,-2.304 -2.304,3.264 z m 44.928,-0.384 0.96,-0.768 -2.496,-0.96 0.192,1.344 z m -106.17596,1.536 0.192,-3.072 -1.344,0.576 -0.192,1.536 z m 36.86396,-1.728 0.192,-1.152 -1.344,1.344 z m -9.408,2.88 2.496,-2.112 -1.152,-1.536 -1.92,0.384 -0.576,1.728 z m -46.46396,-2.688 -0.192,1.344 0.96,0.768 0.384,-2.688 z m 61.24796,5.952 1.152,1.152 1.728,0.96 1.92,-1.152 -1.152,-2.688 -1.92,-1.92 -1.152,-0.768 -2.112,-1.536 -0.96,1.344 v 1.344 l -0.96,0.768 0.192,0.96 1.536,0.576 0.192,2.112 z m -46.27196,0.576 0.768,-0.96 -0.576,-0.96 -1.152,-0.192 -0.192,2.112 z m 31.29596,-0.768 -1.344,-0.96 -1.344,0.576 z m 10.368,1.92 3.456,1.152 -0.576,-1.728 -1.536,-0.576 z m 15.936,2.112 -0.768,-0.96 -0.576,-1.92 -0.96,2.688 0.96,0.768 z m 7.872,-0.768 -0.576,-1.536 -1.728,-0.384 -0.96,1.344 z m -69.50396,-1.152 -1.152,-0.576 -0.96,0.576 z m 35.13596,2.496 1.536,-0.384 0.192,-1.536 -2.496,-0.576 -0.384,1.536 z m 21.312,-0.96 -0.192,0.96 -1.152,0.576 0.576,2.112 2.304,0.384 1.536,-1.728 -0.768,-2.112 -2.304,0.768 1.344,-1.344 z m -11.136,0.384 -0.576,1.152 1.92,1.344 0.768,-1.152 -0.768,-1.152 z m -40.89596,1.152 -0.192,-0.96 -1.536,0.384 z m 30.91196,0.576 -0.576,-1.152 -1.152,0.192 -0.576,0.96 z m 14.592,1.152 -4.224,0.96 1.344,1.536 2.496,-1.152 1.152,-0.384 0.384,-2.304 z m 16.128,13.056 0.96,0.192 -0.96,0.384 -1.536,0.192 0.192,1.728 1.728,0.768 1.536,-1.536 2.304,-1.536 -0.384,-4.224 v -1.152 l -0.96,-0.768 -0.768,1.344 -1.92,-1.728 2.112,-1.92 1.344,-0.96 -1.152,-1.536 h -0.96 l 0.96,-0.576 h 0.96 l -0.96,-1.344 -2.112,1.536 v 1.152 l -0.96,-0.384 0.96,-1.344 -1.344,-1.152 0.768,-1.152 -1.344,0.96 -1.92,0.576 -0.96,3.072 0.96,1.92 1.536,1.536 0.768,0.96 -0.576,1.344 -1.344,-1.152 1.152,3.072 0.192,-1.728 0.96,1.536 v -2.688 l 1.344,1.728 z m -59.13596,-10.176 0.96,-1.152 -0.384,-1.344 -1.536,-0.384 -0.96,1.152 z m 35.71196,-2.88 -0.576,3.072 0.96,2.88 0.192,-0.96 3.072,0.768 -1.344,-2.112 0.192,-1.92 h -2.112 z m -7.872,4.032 3.84,-1.344 -1.92,-1.344 -0.384,-1.152 -2.88,3.072 z m 80.256,-1.152 0.192,-2.304 -3.84,-0.192 -0.192,2.304 1.728,1.152 z m -60.096,-1.536 -2.112,-0.192 2.688,1.536 z m 3.648,3.264 -0.384,-0.96 -0.768,-2.112 0.576,2.112 v 1.92 z m -8.448,1.152 0.96,-1.536 -1.152,-0.768 -0.384,0.384 -1.152,1.728 z m -58.36796,1.536 2.112,0.192 1.152,-1.728 -0.768,-1.92 z m 46.27196,-1.344 -1.344,1.344 0.384,1.92 1.728,0.576 z m 1.92,0.768 -0.96,-0.192 1.344,1.152 z m 4.416,2.496 1.92,1.152 -1.92,-3.456 z m 1.344,-0.768 4.608,2.88 v -2.688 l -2.112,-1.344 z m 8.256,1.152 0.384,-0.768 0.96,-0.192 v -0.96 l -2.304,0.576 v 0.96 z m 3.84,0.96 0.768,-0.384 1.728,-1.344 -0.96,0.192 -0.384,0.576 -1.344,-0.576 -0.192,-1.344 -1.152,0.96 -0.192,1.344 0.192,1.728 z m -23.616,-1.92 -1.536,0.576 1.536,1.536 0.96,0.768 0.384,-1.728 z m 66.816,6.144 0.192,-4.416 -1.344,2.112 z m -38.784,-2.88 -2.688,0.576 -0.384,1.344 -2.88,-0.384 -0.192,-1.344 -2.112,1.152 -1.536,2.112 1.92,-0.576 0.192,1.728 -1.344,0.192 -0.96,2.304 1.536,1.92 1.728,-4.608 0.576,1.152 2.304,0.576 0.576,-2.688 1.536,1.728 1.536,-4.416 v 1.152 l 1.152,0.384 z m -26.496,0.192 -1.536,1.152 3.264,-0.384 z m -41.66396,2.496 3.264,3.264 1.92,-1.92 -0.768,-2.688 -2.688,-0.576 z m 51.83996,0 h -1.536 l 1.536,2.496 0.768,-1.344 z m 65.088,3.84 1.344,-1.152 -0.192,-1.92 -1.728,-0.768 z m -121.15196,0.768 2.304,-1.152 -0.192,-2.496 -4.224,2.496 z m 81.98396,0.384 -1.344,1.152 0.576,-1.344 -3.264,-3.264 -2.88,1.92 -0.192,1.152 1.536,0.96 h 1.344 l -1.152,-0.576 1.152,0.192 0.96,1.344 h 1.536 l -1.536,1.344 2.496,-0.576 z m -38.784,-0.576 v -2.304 l -0.768,1.152 z m 12.096,2.88 0.384,1.536 1.728,0.576 -0.576,-3.072 0.192,-2.304 -1.92,-1.344 -1.92,0.96 0.576,1.344 0.192,0.768 z m 18.24,-0.768 0.96,0.384 -0.384,-3.456 -2.304,-0.384 -1.536,1.728 0.768,1.92 -3.264,3.072 2.496,-0.576 0.384,-1.152 z m -89.85596,0.96 1.344,1.152 1.728,-0.576 0.384,-1.536 -3.072,-0.576 z m 93.31196,1.728 2.496,-0.96 -1.536,-0.192 z m -67.00796,3.84 1.536,-1.92 -1.152,-2.304 -2.496,-0.192 -0.384,4.224 z m 37.05596,-2.88 1.536,-0.576 -0.384,-0.96 z m -54.52796,1.152 1.152,1.92 1.152,-0.768 0.192,-1.728 0.192,-1.344 -2.304,-0.576 z m 60.28796,1.728 -0.384,-1.344 3.84,0.96 -1.92,-1.728 -2.112,0.384 -0.768,-2.496 -2.304,0.768 -0.384,0.96 -0.576,2.304 1.536,1.536 h 1.728 z m -66.43196,-4.032 -0.576,2.112 0.96,-0.96 z m 81.02396,2.688 -0.96,4.224 1.728,-1.728 z m -76.79996,7.488 2.688,-0.192 1.152,-2.304 -1.536,-2.304 -2.88,2.112 0.576,-1.536 -1.152,2.688 z m 124.99196,-3.648 0.768,0.96 -0.384,-1.92 z m -119.03996,2.112 0.384,-2.688 -2.88,3.648 z m 10.56,-0.384 0.768,-0.96 -0.384,-0.96 -1.536,1.728 z m 60.28796,4.032 v -1.92 l -2.112,-0.192 -0.576,-3.648 -2.112,0.384 -0.768,1.92 1.344,1.728 2.112,-0.384 -1.152,2.112 1.536,0.96 z m 2.496,-2.688 1.92,1.152 -2.112,-3.648 -0.192,0.384 -0.768,3.264 -1.152,-2.304 v 2.304 l 1.92,1.152 -0.576,-0.96 z m -81.79196,0.192 0.192,-1.536 -1.152,-0.96 -0.576,3.072 z m -4.8,0.96 1.152,-1.92 -1.152,-0.768 -1.152,0.768 v 1.344 z m 74.30396,-0.96 0.384,-1.536 -3.072,0.96 1.152,1.152 z m 3.456,2.496 0.576,-0.96 -0.384,-0.96 h -1.152 l -0.768,0.96 z m 200.256,-21.888 0.192,4.416 -1.344,2.688 0.768,3.648 -0.192,3.456 v 7.296 l -8.256,1.344 -8.832,0.768 -6.72,-0.96 -7.488,0.384 -4.8,-0.192 -4.224,0.576 -3.648,-8.256 0.576,-2.88 -4.416,5.184 -3.84,1.536 -12.864,6.528 -7.68,-0.384 -4.416,-0.576 -3.264,-1.536 -3.648,-0.576 -3.648,-1.152 -4.416,-0.768 -7.68,-3.84 -4.8,-6.72 -3.072,-7.296 0.384,-7.872 -0.576,-8.448 3.072,-7.68 5.952,-6.144 5.568,-1.728 2.88,-2.304 8.448,-4.416 3.648,-0.384 7.488,-1.344 6.528,-0.768 8.064,-2.496 3.456,-0.192 6.144,-1.152 -1.728,-9.6 h -3.84 l -8.064,4.032 -5.76,2.304 h -1.728 l -3.456,0.576 -3.648,-0.384 -10.752,-0.96 -3.456,-0.192 -3.072,1.344 -2.88,-0.768 -7.296,-4.032 1.92,-5.568 3.264,-5.952 1.728,-2.304 5.184,-4.416 7.488,-5.568 3.84,-0.576 7.488,-0.576 3.456,-1.728 3.84,-0.96 12.864,-2.112 5.76,-0.576 5.952,2.304 6.912,2.304 4.608,1.728 4.608,0.576 5.76,1.92 5.376,6.336 8.448,8.256 2.304,12.288 2.112,10.944 -1.152,3.648 v 7.488 l -0.192,3.264 v 2.88 l -0.576,3.456 0.384,4.224 z m -45.504,-77.568 -0.192,0.96 0.768,0.96 1.152,-0.384 -0.576,-1.92 z m -9.216,3.84 -0.192,1.152 0.96,0.768 0.96,-0.384 0.192,-1.152 z m 15.168,1.728 -0.96,2.304 1.536,2.112 2.496,-0.384 0.96,-2.304 z m -31.872,3.456 -0.384,1.728 -0.768,0.96 1.536,2.304 -0.768,1.536 1.152,1.536 -0.384,-3.072 1.92,0.384 -0.192,-4.416 0.576,-0.768 2.304,-0.768 0.576,-2.112 -2.88,0.768 -1.536,-1.536 z m -11.52,-2.688 -0.192,1.728 1.536,-0.576 -0.384,-0.96 z m 8.064,4.416 2.304,0.192 -0.96,-1.728 0.768,-0.96 -0.96,0.384 -1.536,-0.96 v -1.152 l -2.304,1.152 0.96,0.768 0.768,0.192 0.384,0.96 -1.536,0.768 z m -5.184,-1.92 -3.84,-0.384 1.92,1.344 z m 14.592,0 1.344,1.728 -0.192,-1.344 z m 11.712,4.416 0.192,-0.96 1.152,0.192 1.152,-1.344 -2.304,-1.92 -1.152,1.536 -1.344,0.768 -0.96,-0.384 2.304,2.496 z m 6.144,-4.032 -0.384,1.344 0.96,0.96 1.152,-0.192 0.384,-1.344 z m 1.728,3.072 0.384,1.728 1.728,0.576 -0.768,-3.456 z m -10.56,0 -4.224,0.576 2.304,0.96 z m -22.08,6.912 v -2.112 l 1.152,-2.304 -1.536,-2.304 -2.688,0.192 -1.152,2.496 2.88,1.344 -1.728,1.152 -1.344,1.152 2.304,0.96 0.96,-0.576 z m 16.704,-4.032 2.496,0.576 -3.264,-2.88 z m 8.64,-1.344 -0.192,1.152 2.112,0.192 v -1.152 l -0.96,-0.768 z m 11.904,3.072 -1.344,-0.768 -1.536,0.768 -0.192,1.728 3.072,-1.536 -1.92,1.728 -0.96,2.88 1.728,0.576 1.152,-1.152 -0.96,-1.92 2.88,-0.96 -0.192,0.96 1.728,1.344 1.92,-0.768 -1.536,-1.344 -0.576,-1.152 -1.152,-0.192 v -1.536 l -1.152,-0.384 z m 12.48,0.192 -0.192,-1.536 -1.536,-0.384 -0.768,2.496 1.344,0.384 z m -25.728,0 0.96,-1.728 -3.072,1.728 z m 1.536,1.92 2.112,-2.88 -1.92,0.768 z m -22.656,-0.768 0.576,-0.96 -1.728,-1.152 -0.576,0.96 0.576,1.152 z m 5.184,0.192 h 2.304 v -1.344 l -1.152,-0.576 -1.152,0.576 z m -0.96,-0.192 0.576,-0.96 h -2.304 l 0.576,0.96 z m 16.512,1.536 1.152,-2.304 -4.992,0.384 1.344,2.112 z m 35.328,0 -1.728,-2.112 0.576,4.608 z m 7.488,-1.152 -1.152,1.344 0.384,1.536 1.728,0.576 1.152,-1.152 z m -72.576,4.032 1.152,-1.92 -1.152,-1.728 h -2.112 l -0.96,1.728 z m 17.472,-1.152 -3.84,-2.496 1.152,2.304 z m 25.728,0.96 1.728,-0.576 0.384,-1.92 z m -25.152,1.728 1.728,-0.768 -3.264,-0.96 -1.728,2.112 v -1.92 l -3.648,2.112 1.728,1.152 1.92,-1.152 1.344,0.192 0.768,-1.536 z m 24,1.92 -0.576,-2.304 -2.304,-0.576 1.728,4.032 z m 33.6,0.768 v -1.344 l -1.92,0.768 -2.112,-1.536 -0.192,2.112 1.728,1.344 z m -26.688,-0.576 2.112,0.384 1.344,-1.728 z m -46.272,1.152 1.536,0.384 -1.152,-2.88 -0.96,1.152 z m 60.288,1.152 2.88,-1.728 h -1.92 z m -13.632,5.376 4.992,-1.728 -2.112,-1.728 -2.496,0.96 z m -15.744,4.224 -2.304,0.192 3.84,1.728 z m 20.736,1.728 -2.688,0.384 0.768,0.96 1.344,-0.192 z m -24,5.184 2.304,-0.768 0.768,-2.304 -1.92,-1.728 z m -0.768,-1.536 -4.224,-1.536 0.384,2.112 2.112,0.768 1.152,-0.768 -0.192,0.96 1.152,0.768 z m -22.464,4.608 -0.96,-0.384 0.384,1.344 -1.92,1.536 3.456,-0.96 1.152,-0.192 0.576,-1.344 2.112,-0.192 0.576,-1.344 1.728,-0.192 0.192,1.344 -1.92,0.768 1.536,0.96 -2.496,-0.576 1.536,2.304 h 0.96 v -1.344 l 1.536,1.92 1.536,-0.96 v -0.192 h 0.192 l -0.192,0.192 -0.768,1.152 0.768,1.344 1.536,-2.688 h -1.344 l 0.768,-0.576 2.496,1.92 -0.576,-2.496 0.96,-0.768 -0.192,-2.88 0.384,-0.96 -3.456,-1.152 -1.152,1.92 -0.576,1.344 -1.152,0.384 -0.576,-0.96 1.92,-0.192 -5.376,-2.88 -1.152,0.576 -0.768,3.264 -1.152,0.576 -0.768,-0.96 z m 24.768,-0.576 1.536,-1.344 -0.576,-2.112 z m -28.8,-2.88 -1.152,-0.576 1.152,1.92 z m -2.304,0.96 -0.576,1.152 0.768,1.152 1.152,-2.496 z m 4.416,1.728 -0.768,-1.344 -1.728,2.496 1.536,0.192 z m 44.928,2.496 1.92,1.728 2.304,-0.384 -0.576,2.304 1.536,-0.384 v -1.92 l 0.384,-2.88 -0.96,-0.192 -1.728,-1.536 z m -51.264,-3.072 -1.344,0.96 2.88,-0.384 z m 57.984,0.192 2.112,1.152 -0.768,-1.152 z m -54.528,7.872 3.264,-1.536 -2.112,2.304 2.112,-0.768 0.576,-2.112 v 1.344 l 2.304,1.344 2.496,-3.072 0.192,-0.96 -1.152,1.344 -1.344,-2.688 -2.496,1.344 -0.384,0.576 -2.88,-3.264 -1.152,0.384 -0.768,1.152 -0.384,3.648 1.152,-0.384 z m 32.832,-5.376 -1.728,1.536 0.384,2.112 3.456,-2.88 z m -46.464,0.768 -0.576,2.496 2.496,2.304 2.496,1.536 0.384,0.96 0.384,-0.96 0.384,0.768 0.96,1.536 0.576,1.536 v 0.96 l -1.344,-1.536 -1.152,4.224 2.112,-0.576 0.384,-1.728 0.192,3.456 2.304,-1.344 0.576,-0.768 -0.768,-1.92 -1.728,-0.96 0.96,-2.112 -0.768,-1.92 -1.728,-1.536 -1.536,-0.192 0.576,-2.688 -2.496,0.576 z m 32.832,2.304 v 2.304 l 3.84,0.96 -1.152,-1.152 1.344,-2.112 -1.92,-1.152 z m 9.792,-0.576 -1.536,1.536 0.96,0.768 0.96,-0.384 z m -4.032,0.384 h -1.728 l 1.728,0.96 z m -43.968,7.488 1.152,1.536 0.768,-0.96 v -2.112 l 3.84,-3.84 -2.688,-0.768 -1.92,1.92 v 2.496 z m 74.88,-3.072 0.768,-2.496 -1.152,0.384 -0.384,1.152 z m -57.6,-0.576 0.768,1.152 -0.192,-2.304 z m -11.52,-0.96 2.112,2.112 -0.384,-1.728 z m 51.648,0.768 0.384,2.304 2.112,0.768 z m -25.152,1.92 -0.576,-1.92 -1.152,1.344 -0.192,1.152 0.96,-0.96 z m -10.944,5.376 1.152,2.112 1.92,-3.072 0.384,1.536 2.88,-2.496 1.536,-0.384 0.192,-2.304 -0.192,-2.688 -1.728,1.344 -1.536,0.96 -0.96,2.304 -0.768,-1.152 -1.92,-0.192 -0.96,1.728 -0.384,1.152 z m 58.944,-4.992 0.96,-0.384 -0.768,-1.536 -0.96,0.384 z m -40.32,3.648 -0.768,-0.768 1.536,0.384 -1.536,-1.344 0.384,-1.92 -0.768,-1.152 -2.304,-0.576 0.576,1.92 h -1.536 l 1.728,0.768 -0.384,1.536 -0.768,1.344 -0.768,1.728 1.344,1.92 2.304,-0.384 0.768,-0.768 v -1.152 z m -32.64,-3.84 3.456,2.688 0.192,-2.112 -1.536,-1.344 z m 10.56,3.84 2.112,-2.496 -1.728,-1.536 -2.112,0.768 -0.576,2.304 z m 24.384,12.288 h 4.8 l 6.528,-6.528 0.576,-4.032 0.768,-4.416 -0.192,-0.96 -2.688,0.576 -2.304,0.192 -4.992,3.84 -3.84,1.344 -3.456,8.64 z m -35.328,-15.744 -1.728,0.192 -1.536,0.576 1.152,2.496 1.536,-0.768 1.92,0.192 -0.384,-2.496 z m 62.016,3.072 4.032,-0.192 -2.112,-1.152 z m 14.4,-0.192 1.536,1.728 2.304,-0.384 0.384,-0.96 0.384,-1.344 z m -24.192,0.768 1.536,-0.768 -2.688,-0.192 z m -57.216,-0.192 -3.264,2.304 1.728,0.768 1.536,-1.152 z m 31.296,2.88 1.344,-2.88 -1.536,1.152 z m -24.384,-1.728 -2.496,-0.96 -1.728,4.224 2.496,0.96 2.112,-1.536 z m 61.824,0.576 2.304,-0.384 -0.768,-0.96 -1.152,0.192 z m 17.472,4.416 1.728,-1.344 -3.84,-1.728 0.192,2.112 z m -70.08,-2.88 -1.536,1.344 0.96,-0.192 z m 11.904,2.688 1.728,0.192 -0.96,-1.344 -0.768,-1.344 -2.304,0.768 -2.112,0.192 -0.192,-0.96 h -1.536 l -2.112,0.576 4.416,0.96 -0.192,1.152 h 2.688 z m -16.128,8.64 1.536,1.152 2.496,-1.152 0.768,-0.384 1.152,0.192 0.768,-0.96 -0.576,-0.96 -1.728,0.768 0.384,-1.152 -1.728,0.384 1.728,-1.536 2.304,2.304 0.768,1.536 h 1.728 l 0.96,-1.344 -2.496,-1.728 -0.576,0.96 -0.576,-1.536 -2.112,-0.384 v -1.728 l 2.304,-0.768 1.728,0.96 1.152,1.152 1.728,-1.728 -0.576,-2.496 -2.304,-0.768 h -2.304 l -1.536,2.304 -0.384,1.344 -4.224,-0.192 -0.192,2.496 1.152,0.768 -1.344,1.344 z m -16.704,-8.832 -1.728,3.264 2.88,1.152 1.152,-0.384 0.768,0.96 -0.192,-1.728 0.192,-1.152 -1.152,-0.192 0.192,-1.344 h -1.152 z m 11.136,4.8 0.384,-0.768 0.96,-1.152 -1.536,-0.192 -1.92,-0.96 -1.344,2.88 -1.728,-2.112 -0.576,1.536 0.96,1.152 h 1.152 l 1.92,0.768 z m 19.776,0.192 1.728,-0.576 0.576,-2.304 -2.496,2.496 -0.768,-0.96 -1.92,0.192 -0.768,1.92 z m 0.768,10.944 h 2.304 l 0.768,-0.768 1.344,0.96 1.728,-2.496 -0.96,-0.768 1.344,-1.152 0.768,-1.728 -1.152,-1.536 -2.88,0.768 -0.192,-1.92 -0.576,-1.92 h -0.96 l -0.384,1.152 2.496,4.8 0.96,1.344 -1.536,1.344 -4.224,-0.192 -0.192,2.688 z m -32.256,-8.64 0.96,0.96 1.728,-1.536 -0.96,-0.96 -1.344,0.192 z m 14.4,-1.152 1.728,1.728 -0.576,-1.92 z m -4.8,1.344 h 1.344 v -0.96 l -2.304,-0.384 -2.304,0.576 -0.192,0.96 1.536,0.96 1.344,1.728 z m 33.408,4.032 0.384,-2.688 -2.112,-1.728 -2.496,0.96 z m -11.904,0 0.96,-2.304 -1.536,-1.92 -2.304,0.384 0.96,1.92 1.152,0.96 0.768,0.96 v 0.96 l 1.728,-0.192 z m -25.152,-2.88 -1.728,-0.576 -1.536,1.152 2.112,2.496 1.536,-1.152 z m 10.56,4.992 1.536,-1.92 -1.152,-2.304 -2.496,-0.384 -0.384,4.416 z m -13.632,-2.304 0.384,-0.96 -1.536,-0.576 z m 17.088,-1.152 1.344,1.344 -0.384,-1.536 z m 40.32,1.92 0.576,-1.92 -3.84,0.96 1.344,1.344 z m -7.68,2.304 1.152,-1.152 -0.384,-1.728 -1.536,-0.384 -0.96,2.88 z m -23.808,0.768 -0.384,-2.88 -4.224,-0.192 -0.192,2.496 2.112,1.344 0.96,-0.384 0.576,1.728 z m -20.928,-2.304 -0.96,-0.384 0.384,1.92 z m 43.584,3.648 0.192,-2.304 -0.768,0.96 z m -8.064,-1.92 -0.576,1.728 0.96,-0.192 z m 2.88,2.496 1.536,-0.384 -2.304,-1.728 -0.192,0.96 z m -34.176,0.192 2.112,-0.192 0.768,-2.112 -4.032,0.576 z m 44.16,-0.192 0.768,-2.112 -3.072,2.496 z m -33.408,-1.152 -0.96,0.576 -1.92,0.96 2.304,0.192 -1.152,0.768 v 1.728 l 1.536,0.768 v -3.264 z m -16.128,0.576 h -2.304 l 1.152,0.768 z m 32.832,1.728 -1.152,-1.728 -3.072,1.92 1.152,1.92 2.112,-0.192 z m -34.944,3.84 1.728,-1.536 -0.576,-2.304 -2.112,-0.576 -1.152,3.84 z m 54.144,0 0.96,-2.112 -1.344,-1.728 -1.92,4.224 z m -12.288,-1.152 1.152,-0.384 -0.576,-1.92 -1.152,0.384 z m -16.896,-1.728 -0.576,1.152 0.96,1.152 0.96,-2.496 z m -22.656,0.384 -1.152,2.112 h 4.992 l -1.344,-2.304 z m 24.192,0.768 -1.152,2.88 1.344,-1.152 z m 9.408,3.648 1.152,1.152 -0.576,-1.728 4.416,-1.152 -1.728,-1.92 -2.688,0.576 z m -5.184,-1.152 1.344,1.92 1.92,-1.344 -0.192,1.152 1.536,-2.112 -1.344,-1.92 -2.304,0.192 z m -18.432,0 -0.96,-1.344 v 0.96 h -2.112 l 2.112,0.192 z m 29.952,4.032 1.152,-1.536 -0.96,-1.728 -1.92,-0.192 v 1.92 l -0.192,1.536 z m 22.08,1.728 1.92,-1.728 -0.576,-2.304 -3.648,3.264 z m -36.864,-1.536 0.96,-0.768 -1.152,-0.384 -1.152,0.768 0.768,2.304 0.96,-0.192 z m 5.184,1.152 h 3.072 l -0.768,-1.152 -1.536,-0.192 z"
     id="text1"
     aria-label="nfonigma" />
  <path
     style="font-weight:bold;font-size:173.333px;font-family:'Rubik Dirt';-inkscape-font-specification:'Rubik Dirt Bold';fill:#282828;stroke:none;stroke-width:1.4;fill-opacity:1"
     d="m 119.62127,86.701875 -2.94666,-1.039998 -2.25333,-3.813326 0.17334,-4.853324 0.34666,-3.46666 0.86667,-6.066654 0.86666,-6.586654 1.04,-2.946661 5.02666,-1.559997 2.77333,0.346666 2.59999,-0.346666 15.2533,0.693332 5.37333,-1.039998 3.81332,2.079996 2.08,5.893322 -1.38667,3.813326 0.69334,11.093311 v 3.46666 l -1.21333,3.813326 -9.01332,1.213331 -3.11999,-0.866665 -3.64,0.346666 -3.98666,0.173333 -7.62665,0.693332 z m -1.90666,-27.21328 -0.17333,2.426662 0.86666,2.079996 0.34667,-2.426662 2.94666,-0.866665 -0.17333,-1.73333 -2.08,-0.866665 z m 18.54663,2.946661 -1.73333,-1.73333 -1.56,1.73333 0.34667,0.866665 -0.69333,1.039998 -1.21333,-1.039998 0.34666,1.039998 h 0.86667 l 0.17333,0.519999 -0.52,2.773328 0.17334,1.73333 -1.38667,1.73333 1.21333,-0.519999 -0.52,1.039998 1.04,1.906662 0.86667,-1.386663 0.52,1.906662 -1.04,1.73333 1.55999,0.866665 1.90667,2.773328 -0.86667,0.693332 0.86667,1.906663 0.86666,1.039998 1.38667,1.213331 2.07999,-0.173333 1.38667,-0.173333 -1.04,-2.599995 2.25333,-0.693332 1.38666,-1.213331 -1.56,-0.519999 1.73333,-0.866665 -2.25332,-1.386664 1.21333,-0.693332 0.86666,-0.519999 1.21333,0.173333 1.04,0.346666 0.69333,-1.039998 1.04,0.693332 1.04,-0.693332 -0.52,-1.906663 -1.04,-1.559996 -1.56,-0.173333 -0.34666,-2.079996 0.86666,-1.213331 h 0.86667 l 0.17333,-2.946661 -1.73333,-0.173333 -1.56,1.559997 -0.34666,-1.559997 1.56,-0.693332 v -1.213331 l 2.07999,-2.079996 0.17333,-1.73333 -1.55999,-1.039998 -1.56,2.253329 -1.21333,0.346666 -1.21333,-0.173333 1.56,2.426662 -1.38667,0.693332 h -2.42666 l -0.17333,0.866665 -1.38667,-0.519999 -1.73333,0.693332 -0.69333,0.866665 0.17333,0.866665 1.73333,-0.346666 2.42667,2.426662 -3.29333,1.213331 1.56,0.866665 0.51999,1.906663 -2.25332,-1.559997 0.17333,1.039998 -2.08,-1.386664 -1.21333,1.213331 v 0.693332 l -0.52,-1.039998 0.52,-2.426662 0.52,-1.73333 -0.17333,-1.559997 0.86666,0.519999 -1.04,-1.386664 1.21334,0.173333 1.73333,-1.386664 h 1.21333 l 2.07999,-0.693332 0.34667,-1.039998 1.04,-1.039998 -0.52,-1.386664 -1.38667,1.559997 z m -12.13331,-2.426662 -0.52,1.559997 2.25333,-1.906663 -0.17333,-0.173333 -0.34667,-0.866665 h -0.86666 z m 7.45332,0.173333 v 1.559997 l 2.6,-1.73333 -1.38667,-0.693332 z m -4.33332,-0.173333 -1.21334,-0.173333 -1.38666,2.079996 1.04,2.079996 1.56,0.346666 0.17333,1.386664 -0.69333,1.039998 h 1.03999 l 2.25333,-0.693332 v -1.73333 l 0.17334,-1.906663 1.38666,-0.346666 -0.86666,-0.346666 -0.86667,-1.73333 z m -4.16,0.866665 -0.34666,-0.866665 -1.21333,1.906663 1.38666,0.346666 z m 27.03995,1.213331 -1.73333,1.213331 0.17333,2.079996 z m -8.66665,3.119994 -0.17333,-0.693332 1.04,0.693332 z m -20.97329,-0.346666 -1.04,1.039998 0.86667,-0.173333 z m -2.25333,3.293327 2.08,0.519999 1.38666,-1.386664 -0.52,-2.079996 -1.73333,1.906663 -1.21333,-0.866665 z m 19.4133,0.173333 0.86666,-1.386664 -1.38666,-0.173333 -0.86667,1.039998 -0.34666,1.213331 1.03999,0.866665 0.86667,-1.039998 1.38666,-0.346666 z m -11.61332,2.599995 0.17334,-3.813326 -1.73333,0.866665 -0.17334,1.906663 z m -3.11999,-1.386664 0.17333,-1.559997 -1.73333,2.079996 z m 6.23999,2.426662 -2.25333,0.173333 -0.17333,1.21333 -2.6,0.173333 0.17333,2.426662 1.04,0.346666 1.04,1.213331 1.04,-0.173333 v -1.039998 l 1.21333,-0.693332 -0.17333,-1.213331 0.86666,-0.346666 0.17333,1.213331 1.38667,0.693332 1.21333,-1.039998 -1.90666,-1.386664 -0.34667,-1.906662 0.17333,0.866665 -0.17333,-2.599995 V 69.02191 h -1.38666 l -0.69334,1.213331 z m -9.87998,1.21333 -0.17333,-1.386663 -1.21334,-0.519999 z m 4.15999,1.213331 -0.69333,-1.559997 -1.56,-0.173333 -1.21333,1.386664 z m 13.17331,3.293327 -1.90667,-1.039998 1.38667,-1.039998 -0.69333,-2.079996 2.07999,0.519999 1.04,-0.519999 0.34667,0.866665 -1.21333,0.346666 1.90666,0.173333 0.34666,0.693332 0.86667,1.213331 -2.42666,1.039998 -0.69333,-1.386664 z m -13.69331,-1.213331 -1.04,-0.693332 -1.21333,0.519999 z m -5.89332,-0.173333 0.52,1.73333 0.52,-2.079996 z m 15.94663,2.599995 0.86667,-0.866665 -0.52,-1.213331 z m -4.33332,-1.73333 1.38666,1.039998 -0.52,2.079996 1.38667,1.386664 2.07999,-0.519999 0.17334,-0.866665 1.21333,0.519999 -0.86667,-1.559997 -2.42666,-0.693332 -0.34666,-1.039998 z m 6.93332,2.946661 -0.17333,-2.253329 -0.86667,-0.693332 -0.34666,0.866665 -0.52,1.213331 0.69333,0.866665 z m -8.31998,4.159992 1.55999,-1.73333 -0.69333,-2.079996 -2.08,-0.519999 z m -6.23999,-2.773328 0.34666,-1.213331 -1.55999,1.386664 z m 28.94661,0.173333 -0.34667,-0.866665 -1.56,0.519999 -1.21333,-0.693332 -0.34666,0.866665 -1.56,-0.866665 1.38667,2.079996 -1.21334,0.519999 0.34667,1.559997 2.59999,1.039998 1.38667,-2.426662 1.21333,0.346666 -0.69333,2.079996 2.07999,-1.906663 -0.69333,-1.386664 -0.34666,-0.173333 z m -13.69331,1.73333 h 0.86667 l -1.04,-1.559997 -1.90666,-0.173333 -0.86667,1.73333 -0.17333,0.866665 -3.29333,-2.079996 v 2.426662 l 1.90666,1.386664 2.25333,-1.039998 2.25333,-0.693332 z m -12.65331,1.039998 2.42666,-0.693332 -3.98665,-1.039998 z m 31.89327,89.133184 0.52,3.46666 -2.07999,6.75998 -0.52,13.51998 -6.06666,1.73333 -3.29332,-0.17334 -3.29333,-0.34666 -12.65331,1.21333 -5.37332,-0.69333 -3.63999,-0.34667 -2.94667,-0.69333 -1.73333,-3.81333 v -9.87998 l -0.34666,-2.94666 0.86666,-3.29332 -0.34666,-3.98666 -0.17334,-3.64 -0.69333,-6.58665 1.04,-6.75999 -0.69333,-6.93332 0.34666,-3.98666 -0.34666,-6.06665 0.69333,-9.35998 -0.17333,-14.55997 1.04,-6.93332 3.46666,-0.86667 3.46666,0.17334 h 3.11999 l 6.75999,0.51999 3.81332,-0.51999 7.62665,0.17333 6.23999,0.52 3.81333,1.21333 0.34666,5.54665 0.86667,2.6 -0.52,4.33332 0.17333,7.10666 -0.34666,7.10665 0.69333,4.33332 0.52,2.77333 -1.56,5.89332 0.52,3.29333 -0.69333,3.63999 0.86666,3.12 -0.34666,6.75998 1.21333,3.81333 z m -19.93329,-60.14655 0.69333,1.38666 0.17333,-0.86666 z m -3.46666,1.21333 -1.04,1.21333 3.29333,0.69333 -0.52,-1.73333 z m 7.10665,2.25333 -1.21333,-1.73333 0.17333,1.21333 z m 2.08,0 -1.21333,0.17333 1.73333,1.73333 0.34666,-1.04 z m -8.66665,7.79998 -0.52,1.21333 1.04,1.56 1.90666,-0.17333 1.21333,0.17333 -2.25333,-1.73333 -1.04,-1.56 v -1.03999 z m -10.05331,2.42667 -0.86667,0.86666 0.17333,1.38666 z m 12.99997,2.07999 -1.38666,0.86667 v 1.55999 l 1.38666,0.69334 z m -11.95998,3.81333 4.15999,-1.90667 -1.90666,-1.38666 -2.25333,1.04 -1.03999,1.38666 -1.21334,0.34667 -0.86666,-0.52 -0.69333,-1.38666 -0.69333,-1.21334 0.17333,1.73333 -1.04,0.69334 -0.86666,-0.17334 -0.17334,1.21333 -0.34666,1.73333 1.55999,0.34667 1.38667,-0.86666 1.21333,1.21333 -0.52,1.55999 1.21333,1.21333 1.73333,-0.51999 -2.42666,-2.25333 z m 1.90667,2.07999 1.73333,-1.03999 -0.17334,-2.08 z m 18.02663,-2.59999 -0.17334,1.04 0.86667,0.52 0.17333,-2.08 z m -6.23999,1.04 v 1.21333 l 0.86666,2.07999 1.38667,1.04 1.90666,-1.38666 -0.34666,-2.25333 -2.08,-0.86667 z m -5.02666,2.07999 -1.38666,1.21333 1.04,-0.17333 z m -16.63996,3.98666 0.86666,1.56 1.38666,-2.94666 0.86667,-0.34667 0.17333,-1.21333 -1.04,-0.86666 -1.21333,1.73333 0.86667,0.69333 -1.04,-0.17334 z m 9.18664,-2.59999 1.21333,-0.86667 h -0.86666 z m 8.66665,0.69333 h 2.6 l -1.38667,-0.86667 z m -12.47997,3.98666 1.04,-1.21333 -0.52,-1.38667 -2.6,0.86667 0.52,1.55999 z m 3.63999,-0.17334 1.38666,-1.90666 -1.21333,0.52 z m 3.46666,-1.21333 0.34667,2.08 2.07999,0.86666 z m 20.62663,0.17334 -1.38667,1.03999 0.34667,1.73333 z m -30.33328,4.15999 0.34667,1.21333 1.21333,0.17333 z m 11.26665,0.34666 -0.86667,1.04 2.08,-0.69333 z m -12.13331,4.50666 1.04,-3.46666 -1.56,1.38667 z m 15.59997,-1.90666 0.34666,1.04 1.04,0.17333 z m -15.25331,7.10665 -0.17333,-3.81332 -1.04,2.07999 z m 31.89327,-2.42666 0.86667,0.86666 -0.52,-1.73333 z m -23.91995,3.29333 v -1.21333 l -2.07999,-0.34667 v 1.21333 l 0.86666,0.86667 z m 7.79999,1.38666 1.55999,-0.86666 -2.94666,-1.73333 -1.90666,-0.34667 1.73333,2.25333 z m -2.42667,4.50666 1.21334,-0.17333 -2.08,-0.86667 z m -11.78664,0.86666 2.6,0.86667 -1.04,-1.21333 z m 26.34662,1.38667 2.94666,-1.38667 -1.90667,-0.17333 z m -11.43998,1.38666 0.17333,-1.73333 -1.04,-0.17333 -0.52,0.86666 0.34667,1.04 z m 10.22665,1.73333 -1.38667,-0.52 0.17333,-1.21333 -1.38666,-1.38666 -1.73333,0.69333 -0.52,1.73333 2.25333,0.52 -0.86666,0.69333 0.17333,2.08 z m -0.86667,3.46666 -0.86666,-0.17333 2.25332,-0.52 -2.42666,-0.69333 -2.42666,2.42666 0.69333,2.07999 3.46666,-1.03999 z m -25.82662,3.29333 1.56,-0.86667 -1.73333,-2.59999 -1.38666,1.04 v 1.73333 z m 21.83996,5.89332 1.21333,-1.04 -0.17333,-1.56 -2.42666,1.90667 z m 8.83998,5.89332 0.69334,-2.94666 -1.56,0.52 -0.34667,1.38666 z"
     id="text2"
     aria-label="i"
     sodipodi:nodetypes="cccccccccccccccccccccccccccccccccccccccccccccccccccccccccccccccccccccccccccccccccccccccccccccccccccccccccccccccccccccccccccccccccccccccccccccccccccccccccccccccccccccccccccccccccccccccccccccccccccccccccccccccccccccccccccccccccccccccccccccccccccccccccccccccccccccccccccccccccccccccccccccccccccccccccccccccccccccccccccccccccccccccccccccccccccccccccccccccccccccccccccccccccccccccccccccccccccccccccccccccccccccccccccccccccccccccccccccccccccccccccccccccccccccccccccccccccccccccccccccccccccccccccccccccccccccccccccccccccccccccccccccccccccccccccccccccccccccccccccccccc" />
  <text
     xml:space="preserve"
     style="font-weight:bold;font-size:192px;line-height:0.1;font-family:'Rubik Dirt';-inkscape-font-specification:'Rubik Dirt Bold';text-align:start;writing-mode:lr-tb;direction:ltr;text-anchor:start;fill:#fafafa;stroke:#fafafa"
     x="448.79691"
     y="327.08926"
     id="text3"><tspan
       sodipodi:role="line"
       id="tspan3"
       x="448.79691"
       y="327.08926"
       style="line-height:0.1;fill:#282828;fill-opacity:1" /></text>
</svg>
